%TF.GenerationSoftware,KiCad,Pcbnew,8.0.8*%
%TF.CreationDate,2025-02-18T10:54:12-06:00*%
%TF.ProjectId,ATTinyFlashLEDs_noSwitch,41545469-6e79-4466-9c61-73684c454473,rev?*%
%TF.SameCoordinates,Original*%
%TF.FileFunction,Copper,L1,Top*%
%TF.FilePolarity,Positive*%
%FSLAX46Y46*%
G04 Gerber Fmt 4.6, Leading zero omitted, Abs format (unit mm)*
G04 Created by KiCad (PCBNEW 8.0.8) date 2025-02-18 10:54:12*
%MOMM*%
%LPD*%
G01*
G04 APERTURE LIST*
%TA.AperFunction,ComponentPad*%
%ADD10R,1.600000X1.600000*%
%TD*%
%TA.AperFunction,ComponentPad*%
%ADD11O,1.600000X1.600000*%
%TD*%
%TA.AperFunction,ComponentPad*%
%ADD12R,1.700000X1.700000*%
%TD*%
%TA.AperFunction,ComponentPad*%
%ADD13O,1.700000X1.700000*%
%TD*%
%TA.AperFunction,ComponentPad*%
%ADD14C,1.600000*%
%TD*%
%TA.AperFunction,ComponentPad*%
%ADD15R,1.800000X1.800000*%
%TD*%
%TA.AperFunction,ComponentPad*%
%ADD16C,1.800000*%
%TD*%
%TA.AperFunction,ViaPad*%
%ADD17C,0.600000*%
%TD*%
%TA.AperFunction,Conductor*%
%ADD18C,0.254000*%
%TD*%
%TA.AperFunction,Conductor*%
%ADD19C,1.270000*%
%TD*%
G04 APERTURE END LIST*
D10*
%TO.P,U1,1,~{RESET}/PB5*%
%TO.N,Net-(J1-Pin_1)*%
X115707000Y-86116000D03*
D11*
%TO.P,U1,2,XTAL1/PB3*%
%TO.N,Net-(J1-Pin_2)*%
X115707000Y-88656000D03*
%TO.P,U1,3,XTAL2/PB4*%
%TO.N,Net-(J1-Pin_3)*%
X115707000Y-91196000D03*
%TO.P,U1,4,GND*%
%TO.N,GND*%
X115707000Y-93736000D03*
%TO.P,U1,5,AREF/PB0*%
%TO.N,Net-(J2-Pin_4)*%
X123327000Y-93736000D03*
%TO.P,U1,6,PB1*%
%TO.N,Net-(D1-A)*%
X123327000Y-91196000D03*
%TO.P,U1,7,PB2*%
%TO.N,Net-(D2-A)*%
X123327000Y-88656000D03*
%TO.P,U1,8,VCC*%
%TO.N,Net-(J2-Pin_1)*%
X123327000Y-86116000D03*
%TD*%
D12*
%TO.P,J1,1,Pin_1*%
%TO.N,Net-(J1-Pin_1)*%
X98552000Y-86106000D03*
D13*
%TO.P,J1,2,Pin_2*%
%TO.N,Net-(J1-Pin_2)*%
X98552000Y-88646000D03*
%TO.P,J1,3,Pin_3*%
%TO.N,Net-(J1-Pin_3)*%
X98552000Y-91186000D03*
%TO.P,J1,4,Pin_4*%
%TO.N,GND*%
X98552000Y-93726000D03*
%TD*%
D14*
%TO.P,R4,1*%
%TO.N,Net-(D1-K)*%
X97917000Y-71374000D03*
D11*
%TO.P,R4,2*%
%TO.N,GND*%
X110617000Y-71374000D03*
%TD*%
D15*
%TO.P,D2,1,K*%
%TO.N,Net-(D2-K)*%
X133096000Y-76327000D03*
D16*
%TO.P,D2,2,A*%
%TO.N,Net-(D2-A)*%
X135636000Y-76327000D03*
%TD*%
D12*
%TO.P,J3,1,Pin_1*%
%TO.N,Net-(J2-Pin_1)*%
X141224000Y-104409000D03*
D13*
%TO.P,J3,2,Pin_2*%
%TO.N,+3V0*%
X141224000Y-106949000D03*
%TO.P,J3,3,Pin_3*%
%TO.N,unconnected-(J3-Pin_3-Pad3)*%
X141224000Y-109489000D03*
%TD*%
D15*
%TO.P,D1,1,K*%
%TO.N,Net-(D1-K)*%
X102743000Y-76454000D03*
D16*
%TO.P,D1,2,A*%
%TO.N,Net-(D1-A)*%
X105283000Y-76454000D03*
%TD*%
D12*
%TO.P,J2,1,Pin_1*%
%TO.N,Net-(J2-Pin_1)*%
X139700000Y-86116000D03*
D13*
%TO.P,J2,2,Pin_2*%
%TO.N,Net-(D2-A)*%
X139700000Y-88656000D03*
%TO.P,J2,3,Pin_3*%
%TO.N,Net-(D1-A)*%
X139700000Y-91196000D03*
%TO.P,J2,4,Pin_4*%
%TO.N,Net-(J2-Pin_4)*%
X139700000Y-93736000D03*
%TD*%
D14*
%TO.P,R3,1*%
%TO.N,Net-(D2-K)*%
X140208000Y-71374000D03*
D11*
%TO.P,R3,2*%
%TO.N,GND*%
X127508000Y-71374000D03*
%TD*%
D17*
%TO.N,GND*%
X97536000Y-76708000D03*
X100076000Y-79248000D03*
X100076000Y-69088000D03*
X107696000Y-69088000D03*
X107696000Y-74168000D03*
X105156000Y-71628000D03*
X133096000Y-71628000D03*
X140716000Y-76708000D03*
X138176000Y-81788000D03*
X128016000Y-76708000D03*
X128016000Y-81788000D03*
X128016000Y-86868000D03*
X130556000Y-84328000D03*
X97536000Y-102108000D03*
X100076000Y-107188000D03*
X97536000Y-109728000D03*
X97536000Y-114808000D03*
X100076000Y-117348000D03*
X100076000Y-112268000D03*
X102616000Y-114808000D03*
X105156000Y-112268000D03*
X105156000Y-117348000D03*
X133096000Y-117348000D03*
X143256000Y-117348000D03*
X138176000Y-117348000D03*
X140716000Y-114808000D03*
X138176000Y-112268000D03*
X135636000Y-114808000D03*
X133096000Y-112268000D03*
X135636000Y-109728000D03*
X133096000Y-99568000D03*
X130556000Y-97028000D03*
X125476000Y-97028000D03*
X107696000Y-99568000D03*
X112776000Y-94488000D03*
X110236000Y-97028000D03*
X107696000Y-94488000D03*
X105156000Y-97028000D03*
X102616000Y-94488000D03*
X110236000Y-84328000D03*
X110236000Y-81788000D03*
X107696000Y-81788000D03*
X107696000Y-79248000D03*
X120396000Y-81788000D03*
X115316000Y-76708000D03*
X117856000Y-79248000D03*
X120396000Y-76708000D03*
X120396000Y-71628000D03*
X117856000Y-74168000D03*
X115316000Y-71628000D03*
X112776000Y-74168000D03*
X120396000Y-69088000D03*
X117856000Y-69088000D03*
X115316000Y-69088000D03*
X112776000Y-69088000D03*
%TD*%
D18*
%TO.N,Net-(D2-A)*%
X123327000Y-88656000D02*
X139700000Y-88656000D01*
%TO.N,Net-(J2-Pin_4)*%
X123327000Y-93736000D02*
X139700000Y-93736000D01*
%TO.N,Net-(D1-A)*%
X123327000Y-91196000D02*
X139700000Y-91196000D01*
%TO.N,Net-(D2-A)*%
X130927000Y-88656000D02*
X135509000Y-84074000D01*
X123327000Y-88656000D02*
X130927000Y-88656000D01*
D19*
%TO.N,Net-(J2-Pin_1)*%
X123327000Y-69205000D02*
X123327000Y-86116000D01*
X142748000Y-69088000D02*
X123444000Y-69088000D01*
X142748000Y-86106000D02*
X142748000Y-69088000D01*
X123444000Y-69088000D02*
X123327000Y-69205000D01*
X141986000Y-86106000D02*
X141976000Y-86116000D01*
X142748000Y-86106000D02*
X141986000Y-86106000D01*
X142748000Y-102885000D02*
X142748000Y-86106000D01*
X141976000Y-86116000D02*
X139700000Y-86116000D01*
X141224000Y-104409000D02*
X142748000Y-102885000D01*
D18*
%TO.N,Net-(J1-Pin_1)*%
X98562000Y-86116000D02*
X98552000Y-86106000D01*
X115707000Y-86116000D02*
X98562000Y-86116000D01*
%TO.N,Net-(J1-Pin_2)*%
X98562000Y-88656000D02*
X98552000Y-88646000D01*
X115707000Y-88656000D02*
X98562000Y-88656000D01*
%TO.N,Net-(J1-Pin_3)*%
X113518000Y-91186000D02*
X98552000Y-91186000D01*
X113528000Y-91196000D02*
X113518000Y-91186000D01*
X115707000Y-91196000D02*
X113528000Y-91196000D01*
%TO.N,Net-(D1-A)*%
X123327000Y-91196000D02*
X108585000Y-76454000D01*
X123581000Y-90942000D02*
X123327000Y-91196000D01*
X108585000Y-76454000D02*
X105283000Y-76454000D01*
%TO.N,Net-(D2-A)*%
X135509000Y-84074000D02*
X135636000Y-83947000D01*
X123581000Y-88402000D02*
X123327000Y-88656000D01*
X135636000Y-83947000D02*
X135636000Y-76327000D01*
%TO.N,GND*%
X98181000Y-93736000D02*
X97790000Y-93345000D01*
%TO.N,Net-(J1-Pin_2)*%
X98181000Y-88656000D02*
X97790000Y-88265000D01*
%TO.N,Net-(J1-Pin_3)*%
X98181000Y-91196000D02*
X97790000Y-90805000D01*
%TO.N,Net-(J1-Pin_1)*%
X98181000Y-86116000D02*
X97790000Y-85725000D01*
%TO.N,Net-(J2-Pin_4)*%
X123581000Y-93482000D02*
X123327000Y-93736000D01*
D19*
%TO.N,Net-(J2-Pin_1)*%
X123444000Y-85999000D02*
X123327000Y-86116000D01*
D18*
X123581000Y-85862000D02*
X123327000Y-86116000D01*
%TD*%
%TA.AperFunction,Conductor*%
%TO.N,GND*%
G36*
X123000622Y-67830185D02*
G01*
X123046377Y-67882989D01*
X123056321Y-67952147D01*
X123027296Y-68015703D01*
X122989878Y-68044985D01*
X122848867Y-68116833D01*
X122704270Y-68221890D01*
X122460890Y-68465270D01*
X122355833Y-68609867D01*
X122274243Y-68769997D01*
X122273184Y-68773754D01*
X122219458Y-68939105D01*
X122191500Y-69115629D01*
X122191500Y-85446351D01*
X122179882Y-85498756D01*
X122100262Y-85669502D01*
X122100258Y-85669511D01*
X122041366Y-85889302D01*
X122041364Y-85889313D01*
X122021532Y-86115998D01*
X122021532Y-86116001D01*
X122041364Y-86342686D01*
X122041366Y-86342697D01*
X122100258Y-86562488D01*
X122100261Y-86562497D01*
X122196431Y-86768732D01*
X122196432Y-86768734D01*
X122326954Y-86955141D01*
X122487858Y-87116045D01*
X122487861Y-87116047D01*
X122674266Y-87246568D01*
X122732275Y-87273618D01*
X122784714Y-87319791D01*
X122803866Y-87386984D01*
X122783650Y-87453865D01*
X122732275Y-87498381D01*
X122715272Y-87506310D01*
X122674267Y-87525431D01*
X122674265Y-87525432D01*
X122487858Y-87655954D01*
X122326954Y-87816858D01*
X122196432Y-88003265D01*
X122196431Y-88003267D01*
X122100261Y-88209502D01*
X122100258Y-88209511D01*
X122041366Y-88429302D01*
X122041364Y-88429313D01*
X122021532Y-88655998D01*
X122021532Y-88656002D01*
X122025119Y-88697003D01*
X122011352Y-88765503D01*
X121962737Y-88815686D01*
X121894708Y-88831619D01*
X121828865Y-88808243D01*
X121813910Y-88795491D01*
X108985011Y-75966591D01*
X108985007Y-75966588D01*
X108882239Y-75897920D01*
X108882226Y-75897913D01*
X108831178Y-75876769D01*
X108768035Y-75850614D01*
X108768027Y-75850612D01*
X108646807Y-75826500D01*
X108646803Y-75826500D01*
X106613044Y-75826500D01*
X106546005Y-75806815D01*
X106509235Y-75770321D01*
X106391983Y-75590852D01*
X106391980Y-75590849D01*
X106391979Y-75590847D01*
X106234784Y-75420087D01*
X106234779Y-75420083D01*
X106234777Y-75420081D01*
X106051634Y-75277535D01*
X106051628Y-75277531D01*
X105847504Y-75167064D01*
X105847495Y-75167061D01*
X105627984Y-75091702D01*
X105437450Y-75059908D01*
X105399049Y-75053500D01*
X105166951Y-75053500D01*
X105128550Y-75059908D01*
X104938015Y-75091702D01*
X104718504Y-75167061D01*
X104718495Y-75167064D01*
X104514371Y-75277531D01*
X104514365Y-75277535D01*
X104331222Y-75420081D01*
X104331218Y-75420085D01*
X104322866Y-75429158D01*
X104262979Y-75465148D01*
X104193141Y-75463047D01*
X104135525Y-75423522D01*
X104115455Y-75388507D01*
X104086797Y-75311671D01*
X104086793Y-75311664D01*
X104000547Y-75196455D01*
X104000544Y-75196452D01*
X103885335Y-75110206D01*
X103885328Y-75110202D01*
X103750482Y-75059908D01*
X103750483Y-75059908D01*
X103690883Y-75053501D01*
X103690881Y-75053500D01*
X103690873Y-75053500D01*
X103690864Y-75053500D01*
X101795129Y-75053500D01*
X101795123Y-75053501D01*
X101735516Y-75059908D01*
X101600671Y-75110202D01*
X101600664Y-75110206D01*
X101485455Y-75196452D01*
X101485452Y-75196455D01*
X101399206Y-75311664D01*
X101399202Y-75311671D01*
X101348908Y-75446517D01*
X101342501Y-75506116D01*
X101342500Y-75506135D01*
X101342500Y-77401870D01*
X101342501Y-77401876D01*
X101348908Y-77461483D01*
X101399202Y-77596328D01*
X101399206Y-77596335D01*
X101485452Y-77711544D01*
X101485455Y-77711547D01*
X101600664Y-77797793D01*
X101600671Y-77797797D01*
X101735517Y-77848091D01*
X101735516Y-77848091D01*
X101742444Y-77848835D01*
X101795127Y-77854500D01*
X103690872Y-77854499D01*
X103750483Y-77848091D01*
X103885331Y-77797796D01*
X104000546Y-77711546D01*
X104086796Y-77596331D01*
X104115455Y-77519493D01*
X104157326Y-77463559D01*
X104222790Y-77439141D01*
X104291063Y-77453992D01*
X104322866Y-77478843D01*
X104330302Y-77486920D01*
X104331215Y-77487912D01*
X104331222Y-77487918D01*
X104514365Y-77630464D01*
X104514371Y-77630468D01*
X104514374Y-77630470D01*
X104718497Y-77740936D01*
X104832487Y-77780068D01*
X104938015Y-77816297D01*
X104938017Y-77816297D01*
X104938019Y-77816298D01*
X105166951Y-77854500D01*
X105166952Y-77854500D01*
X105399048Y-77854500D01*
X105399049Y-77854500D01*
X105627981Y-77816298D01*
X105847503Y-77740936D01*
X106051626Y-77630470D01*
X106234784Y-77487913D01*
X106391979Y-77317153D01*
X106395254Y-77312141D01*
X106509235Y-77137679D01*
X106562381Y-77092322D01*
X106613044Y-77081500D01*
X108273719Y-77081500D01*
X108340758Y-77101185D01*
X108361400Y-77117819D01*
X115847400Y-84603819D01*
X115880885Y-84665142D01*
X115875901Y-84734834D01*
X115834029Y-84790767D01*
X115768565Y-84815184D01*
X115759719Y-84815500D01*
X114859129Y-84815500D01*
X114859123Y-84815501D01*
X114799516Y-84821908D01*
X114664671Y-84872202D01*
X114664664Y-84872206D01*
X114549455Y-84958452D01*
X114549452Y-84958455D01*
X114463206Y-85073664D01*
X114463202Y-85073671D01*
X114412908Y-85208517D01*
X114406501Y-85268116D01*
X114406500Y-85268135D01*
X114406500Y-85364500D01*
X114386815Y-85431539D01*
X114334011Y-85477294D01*
X114282500Y-85488500D01*
X100026499Y-85488500D01*
X99959460Y-85468815D01*
X99913705Y-85416011D01*
X99902499Y-85364500D01*
X99902499Y-85208129D01*
X99902498Y-85208123D01*
X99902497Y-85208116D01*
X99896091Y-85148517D01*
X99868175Y-85073671D01*
X99845797Y-85013671D01*
X99845793Y-85013664D01*
X99759547Y-84898455D01*
X99759544Y-84898452D01*
X99644335Y-84812206D01*
X99644328Y-84812202D01*
X99509482Y-84761908D01*
X99509483Y-84761908D01*
X99449883Y-84755501D01*
X99449881Y-84755500D01*
X99449873Y-84755500D01*
X99449864Y-84755500D01*
X97654129Y-84755500D01*
X97654123Y-84755501D01*
X97594516Y-84761908D01*
X97459671Y-84812202D01*
X97459664Y-84812206D01*
X97344455Y-84898452D01*
X97344452Y-84898455D01*
X97258206Y-85013664D01*
X97258202Y-85013671D01*
X97207908Y-85148517D01*
X97201501Y-85208116D01*
X97201501Y-85208123D01*
X97201500Y-85208135D01*
X97201500Y-85481362D01*
X97192061Y-85528814D01*
X97186616Y-85541958D01*
X97186612Y-85541972D01*
X97162500Y-85663192D01*
X97162500Y-85786807D01*
X97186612Y-85908027D01*
X97186616Y-85908041D01*
X97192061Y-85921186D01*
X97201500Y-85968638D01*
X97201500Y-87003870D01*
X97201501Y-87003876D01*
X97207908Y-87063483D01*
X97258202Y-87198328D01*
X97258206Y-87198335D01*
X97344452Y-87313544D01*
X97344455Y-87313547D01*
X97459664Y-87399793D01*
X97459671Y-87399797D01*
X97574482Y-87442619D01*
X97630416Y-87484490D01*
X97654833Y-87549954D01*
X97639981Y-87618227D01*
X97590576Y-87667633D01*
X97578603Y-87673362D01*
X97492764Y-87708918D01*
X97389993Y-87777587D01*
X97389986Y-87777593D01*
X97302593Y-87864986D01*
X97302587Y-87864993D01*
X97233917Y-87967766D01*
X97186614Y-88081964D01*
X97186612Y-88081972D01*
X97162500Y-88203192D01*
X97162500Y-88326807D01*
X97182889Y-88429308D01*
X97186614Y-88448035D01*
X97197333Y-88473912D01*
X97206299Y-88532171D01*
X97196341Y-88645997D01*
X97196341Y-88646000D01*
X97216936Y-88881403D01*
X97216938Y-88881413D01*
X97278094Y-89109655D01*
X97278096Y-89109659D01*
X97278097Y-89109663D01*
X97282761Y-89119664D01*
X97377965Y-89323830D01*
X97377967Y-89323834D01*
X97486281Y-89478521D01*
X97513504Y-89517400D01*
X97513506Y-89517402D01*
X97680597Y-89684493D01*
X97680603Y-89684498D01*
X97866158Y-89814425D01*
X97909783Y-89869002D01*
X97916977Y-89938500D01*
X97885454Y-90000855D01*
X97866158Y-90017575D01*
X97680604Y-90147500D01*
X97680595Y-90147508D01*
X97656951Y-90171151D01*
X97612082Y-90198050D01*
X97612593Y-90199283D01*
X97492764Y-90248918D01*
X97389993Y-90317587D01*
X97389986Y-90317593D01*
X97302593Y-90404986D01*
X97302587Y-90404993D01*
X97233917Y-90507766D01*
X97186614Y-90621964D01*
X97186612Y-90621972D01*
X97162500Y-90743192D01*
X97162500Y-90866807D01*
X97182889Y-90969308D01*
X97186614Y-90988035D01*
X97197333Y-91013912D01*
X97206299Y-91072171D01*
X97196341Y-91185997D01*
X97196341Y-91186000D01*
X97216936Y-91421403D01*
X97216938Y-91421413D01*
X97278094Y-91649655D01*
X97278096Y-91649659D01*
X97278097Y-91649663D01*
X97282761Y-91659664D01*
X97377965Y-91863830D01*
X97377967Y-91863834D01*
X97513501Y-92057395D01*
X97513506Y-92057402D01*
X97680597Y-92224493D01*
X97680603Y-92224498D01*
X97694880Y-92234495D01*
X97865398Y-92353893D01*
X97866594Y-92354730D01*
X97910219Y-92409307D01*
X97917413Y-92478805D01*
X97885890Y-92541160D01*
X97866595Y-92557880D01*
X97680922Y-92687890D01*
X97680920Y-92687891D01*
X97513891Y-92854920D01*
X97513886Y-92854926D01*
X97378400Y-93048420D01*
X97378399Y-93048422D01*
X97278570Y-93262507D01*
X97278567Y-93262513D01*
X97221364Y-93475999D01*
X97221364Y-93476000D01*
X98118988Y-93476000D01*
X98086075Y-93533007D01*
X98052000Y-93660174D01*
X98052000Y-93791826D01*
X98086075Y-93918993D01*
X98118988Y-93976000D01*
X97221364Y-93976000D01*
X97278567Y-94189486D01*
X97278570Y-94189492D01*
X97378399Y-94403578D01*
X97513894Y-94597082D01*
X97680917Y-94764105D01*
X97874421Y-94899600D01*
X98088507Y-94999429D01*
X98088516Y-94999433D01*
X98302000Y-95056634D01*
X98302000Y-94159012D01*
X98359007Y-94191925D01*
X98486174Y-94226000D01*
X98617826Y-94226000D01*
X98744993Y-94191925D01*
X98802000Y-94159012D01*
X98802000Y-95056633D01*
X99015483Y-94999433D01*
X99015492Y-94999429D01*
X99229578Y-94899600D01*
X99423082Y-94764105D01*
X99590105Y-94597082D01*
X99725600Y-94403578D01*
X99825429Y-94189492D01*
X99825432Y-94189486D01*
X99882636Y-93976000D01*
X98985012Y-93976000D01*
X99017925Y-93918993D01*
X99052000Y-93791826D01*
X99052000Y-93660174D01*
X99017925Y-93533007D01*
X98985012Y-93476000D01*
X99882636Y-93476000D01*
X99882635Y-93475999D01*
X99825432Y-93262513D01*
X99825429Y-93262507D01*
X99725600Y-93048422D01*
X99725599Y-93048420D01*
X99590113Y-92854926D01*
X99590108Y-92854920D01*
X99423078Y-92687890D01*
X99237405Y-92557879D01*
X99193780Y-92503302D01*
X99186588Y-92433804D01*
X99218110Y-92371449D01*
X99237406Y-92354730D01*
X99423401Y-92224495D01*
X99590495Y-92057401D01*
X99724252Y-91866375D01*
X99778829Y-91822752D01*
X99825827Y-91813500D01*
X113403712Y-91813500D01*
X113427905Y-91815883D01*
X113466196Y-91823500D01*
X113466197Y-91823500D01*
X114494213Y-91823500D01*
X114561252Y-91843185D01*
X114595788Y-91876377D01*
X114706954Y-92035141D01*
X114867858Y-92196045D01*
X114867861Y-92196047D01*
X115054266Y-92326568D01*
X115112865Y-92353893D01*
X115165305Y-92400065D01*
X115184457Y-92467258D01*
X115164242Y-92534139D01*
X115112867Y-92578657D01*
X115054515Y-92605867D01*
X114868179Y-92736342D01*
X114707342Y-92897179D01*
X114576865Y-93083517D01*
X114480734Y-93289673D01*
X114480730Y-93289682D01*
X114428127Y-93485999D01*
X114428128Y-93486000D01*
X115391314Y-93486000D01*
X115386920Y-93490394D01*
X115334259Y-93581606D01*
X115307000Y-93683339D01*
X115307000Y-93788661D01*
X115334259Y-93890394D01*
X115386920Y-93981606D01*
X115391314Y-93986000D01*
X114428128Y-93986000D01*
X114480730Y-94182317D01*
X114480734Y-94182326D01*
X114576865Y-94388482D01*
X114707342Y-94574820D01*
X114868179Y-94735657D01*
X115054517Y-94866134D01*
X115260673Y-94962265D01*
X115260682Y-94962269D01*
X115456999Y-95014872D01*
X115457000Y-95014871D01*
X115457000Y-94051686D01*
X115461394Y-94056080D01*
X115552606Y-94108741D01*
X115654339Y-94136000D01*
X115759661Y-94136000D01*
X115861394Y-94108741D01*
X115952606Y-94056080D01*
X115957000Y-94051686D01*
X115957000Y-95014872D01*
X116153317Y-94962269D01*
X116153326Y-94962265D01*
X116359482Y-94866134D01*
X116545820Y-94735657D01*
X116706657Y-94574820D01*
X116837134Y-94388482D01*
X116933265Y-94182326D01*
X116933269Y-94182317D01*
X116985872Y-93986000D01*
X116022686Y-93986000D01*
X116027080Y-93981606D01*
X116079741Y-93890394D01*
X116107000Y-93788661D01*
X116107000Y-93683339D01*
X116079741Y-93581606D01*
X116027080Y-93490394D01*
X116022686Y-93486000D01*
X116985872Y-93486000D01*
X116985872Y-93485999D01*
X116933269Y-93289682D01*
X116933265Y-93289673D01*
X116837134Y-93083517D01*
X116706657Y-92897179D01*
X116545820Y-92736342D01*
X116359482Y-92605865D01*
X116301133Y-92578657D01*
X116248694Y-92532484D01*
X116229542Y-92465291D01*
X116249758Y-92398410D01*
X116301129Y-92353895D01*
X116359734Y-92326568D01*
X116546139Y-92196047D01*
X116707047Y-92035139D01*
X116837568Y-91848734D01*
X116933739Y-91642496D01*
X116992635Y-91422692D01*
X117012468Y-91196000D01*
X116992635Y-90969308D01*
X116933739Y-90749504D01*
X116837568Y-90543266D01*
X116707047Y-90356861D01*
X116707045Y-90356858D01*
X116546141Y-90195954D01*
X116359734Y-90065432D01*
X116359728Y-90065429D01*
X116301725Y-90038382D01*
X116249285Y-89992210D01*
X116230133Y-89925017D01*
X116250348Y-89858135D01*
X116301725Y-89813618D01*
X116359734Y-89786568D01*
X116546139Y-89656047D01*
X116707047Y-89495139D01*
X116837568Y-89308734D01*
X116933739Y-89102496D01*
X116992635Y-88882692D01*
X117012468Y-88656000D01*
X116992635Y-88429308D01*
X116933739Y-88209504D01*
X116837568Y-88003266D01*
X116739839Y-87863693D01*
X116707045Y-87816858D01*
X116546143Y-87655956D01*
X116521536Y-87638726D01*
X116477912Y-87584149D01*
X116470719Y-87514650D01*
X116502241Y-87452296D01*
X116562471Y-87416882D01*
X116579404Y-87413861D01*
X116614483Y-87410091D01*
X116749331Y-87359796D01*
X116864546Y-87273546D01*
X116950796Y-87158331D01*
X117001091Y-87023483D01*
X117007500Y-86963873D01*
X117007499Y-86063279D01*
X117027183Y-85996241D01*
X117079987Y-85950486D01*
X117149146Y-85940542D01*
X117212702Y-85969567D01*
X117219180Y-85975599D01*
X122026989Y-90783408D01*
X122060474Y-90844731D01*
X122059083Y-90903182D01*
X122041366Y-90969302D01*
X122041364Y-90969313D01*
X122021532Y-91195998D01*
X122021532Y-91196001D01*
X122041364Y-91422686D01*
X122041366Y-91422697D01*
X122100258Y-91642488D01*
X122100261Y-91642497D01*
X122196431Y-91848732D01*
X122196432Y-91848734D01*
X122326954Y-92035141D01*
X122487858Y-92196045D01*
X122487861Y-92196047D01*
X122674266Y-92326568D01*
X122732275Y-92353618D01*
X122784714Y-92399791D01*
X122803866Y-92466984D01*
X122783650Y-92533865D01*
X122732275Y-92578382D01*
X122674267Y-92605431D01*
X122674265Y-92605432D01*
X122487858Y-92735954D01*
X122326954Y-92896858D01*
X122196432Y-93083265D01*
X122196431Y-93083267D01*
X122100261Y-93289502D01*
X122100258Y-93289511D01*
X122041366Y-93509302D01*
X122041364Y-93509313D01*
X122021532Y-93735998D01*
X122021532Y-93736001D01*
X122041364Y-93962686D01*
X122041366Y-93962697D01*
X122100258Y-94182488D01*
X122100261Y-94182497D01*
X122196431Y-94388732D01*
X122196432Y-94388734D01*
X122326954Y-94575141D01*
X122487858Y-94736045D01*
X122487861Y-94736047D01*
X122674266Y-94866568D01*
X122880504Y-94962739D01*
X123100308Y-95021635D01*
X123262230Y-95035801D01*
X123326998Y-95041468D01*
X123327000Y-95041468D01*
X123327002Y-95041468D01*
X123383673Y-95036509D01*
X123553692Y-95021635D01*
X123773496Y-94962739D01*
X123979734Y-94866568D01*
X124166139Y-94736047D01*
X124327047Y-94575139D01*
X124438212Y-94416376D01*
X124492788Y-94372752D01*
X124539787Y-94363500D01*
X138426173Y-94363500D01*
X138493212Y-94383185D01*
X138527747Y-94416375D01*
X138661505Y-94607401D01*
X138828599Y-94774495D01*
X138925384Y-94842265D01*
X139022165Y-94910032D01*
X139022167Y-94910033D01*
X139022170Y-94910035D01*
X139236337Y-95009903D01*
X139236343Y-95009904D01*
X139236344Y-95009905D01*
X139280114Y-95021633D01*
X139464592Y-95071063D01*
X139652918Y-95087539D01*
X139699999Y-95091659D01*
X139700000Y-95091659D01*
X139700001Y-95091659D01*
X139739234Y-95088226D01*
X139935408Y-95071063D01*
X140163663Y-95009903D01*
X140377830Y-94910035D01*
X140571401Y-94774495D01*
X140738495Y-94607401D01*
X140874035Y-94413830D01*
X140973903Y-94199663D01*
X141035063Y-93971408D01*
X141055659Y-93736000D01*
X141035063Y-93500592D01*
X140973903Y-93272337D01*
X140874035Y-93058171D01*
X140867208Y-93048420D01*
X140738494Y-92864597D01*
X140571402Y-92697506D01*
X140571396Y-92697501D01*
X140385842Y-92567575D01*
X140342217Y-92512998D01*
X140335023Y-92443500D01*
X140366546Y-92381145D01*
X140385842Y-92364425D01*
X140439910Y-92326566D01*
X140571401Y-92234495D01*
X140738495Y-92067401D01*
X140874035Y-91873830D01*
X140973903Y-91659663D01*
X141035063Y-91431408D01*
X141055659Y-91196000D01*
X141035063Y-90960592D01*
X140973903Y-90732337D01*
X140874035Y-90518171D01*
X140866750Y-90507766D01*
X140738494Y-90324597D01*
X140571402Y-90157506D01*
X140571396Y-90157501D01*
X140385842Y-90027575D01*
X140342217Y-89972998D01*
X140335023Y-89903500D01*
X140366546Y-89841145D01*
X140385842Y-89824425D01*
X140439909Y-89786567D01*
X140571401Y-89694495D01*
X140738495Y-89527401D01*
X140874035Y-89333830D01*
X140973903Y-89119663D01*
X141035063Y-88891408D01*
X141055659Y-88656000D01*
X141035063Y-88420592D01*
X140973903Y-88192337D01*
X140874035Y-87978171D01*
X140866749Y-87967766D01*
X140738496Y-87784600D01*
X140728495Y-87774599D01*
X140616567Y-87662671D01*
X140583084Y-87601351D01*
X140588068Y-87531659D01*
X140629939Y-87475725D01*
X140660915Y-87458810D01*
X140792331Y-87409796D01*
X140907546Y-87323546D01*
X140915032Y-87313547D01*
X140924282Y-87301190D01*
X140980215Y-87259318D01*
X141023549Y-87251500D01*
X141488500Y-87251500D01*
X141555539Y-87271185D01*
X141601294Y-87323989D01*
X141612500Y-87375500D01*
X141612500Y-102363297D01*
X141592815Y-102430336D01*
X141576181Y-102450978D01*
X141004977Y-103022181D01*
X140943654Y-103055666D01*
X140917296Y-103058500D01*
X140326129Y-103058500D01*
X140326123Y-103058501D01*
X140266516Y-103064908D01*
X140131671Y-103115202D01*
X140131664Y-103115206D01*
X140016455Y-103201452D01*
X140016452Y-103201455D01*
X139930206Y-103316664D01*
X139930202Y-103316671D01*
X139879908Y-103451517D01*
X139873501Y-103511116D01*
X139873500Y-103511135D01*
X139873500Y-105306870D01*
X139873501Y-105306876D01*
X139879908Y-105366483D01*
X139930202Y-105501328D01*
X139930206Y-105501335D01*
X140016452Y-105616544D01*
X140016455Y-105616547D01*
X140131664Y-105702793D01*
X140131671Y-105702797D01*
X140263081Y-105751810D01*
X140319015Y-105793681D01*
X140343432Y-105859145D01*
X140328580Y-105927418D01*
X140307430Y-105955673D01*
X140185503Y-106077600D01*
X140049965Y-106271169D01*
X140049964Y-106271171D01*
X139950098Y-106485335D01*
X139950094Y-106485344D01*
X139888938Y-106713586D01*
X139888936Y-106713596D01*
X139868341Y-106948999D01*
X139868341Y-106949000D01*
X139888936Y-107184403D01*
X139888938Y-107184413D01*
X139950094Y-107412655D01*
X139950096Y-107412659D01*
X139950097Y-107412663D01*
X140049965Y-107626830D01*
X140049967Y-107626834D01*
X140185501Y-107820395D01*
X140185506Y-107820402D01*
X140352597Y-107987493D01*
X140352603Y-107987498D01*
X140538158Y-108117425D01*
X140581783Y-108172002D01*
X140588977Y-108241500D01*
X140557454Y-108303855D01*
X140538158Y-108320575D01*
X140352597Y-108450505D01*
X140185505Y-108617597D01*
X140049965Y-108811169D01*
X140049964Y-108811171D01*
X139950098Y-109025335D01*
X139950094Y-109025344D01*
X139888938Y-109253586D01*
X139888936Y-109253596D01*
X139868341Y-109488999D01*
X139868341Y-109489000D01*
X139888936Y-109724403D01*
X139888938Y-109724413D01*
X139950094Y-109952655D01*
X139950096Y-109952659D01*
X139950097Y-109952663D01*
X140049965Y-110166830D01*
X140049967Y-110166834D01*
X140158281Y-110321521D01*
X140185505Y-110360401D01*
X140352599Y-110527495D01*
X140449384Y-110595265D01*
X140546165Y-110663032D01*
X140546167Y-110663033D01*
X140546170Y-110663035D01*
X140760337Y-110762903D01*
X140988592Y-110824063D01*
X141176918Y-110840539D01*
X141223999Y-110844659D01*
X141224000Y-110844659D01*
X141224001Y-110844659D01*
X141263234Y-110841226D01*
X141459408Y-110824063D01*
X141687663Y-110762903D01*
X141901830Y-110663035D01*
X142095401Y-110527495D01*
X142262495Y-110360401D01*
X142398035Y-110166830D01*
X142497903Y-109952663D01*
X142559063Y-109724408D01*
X142579659Y-109489000D01*
X142559063Y-109253592D01*
X142497903Y-109025337D01*
X142398035Y-108811171D01*
X142262495Y-108617599D01*
X142262494Y-108617597D01*
X142095402Y-108450506D01*
X142095396Y-108450501D01*
X141909842Y-108320575D01*
X141866217Y-108265998D01*
X141859023Y-108196500D01*
X141890546Y-108134145D01*
X141909842Y-108117425D01*
X141932026Y-108101891D01*
X142095401Y-107987495D01*
X142262495Y-107820401D01*
X142398035Y-107626830D01*
X142497903Y-107412663D01*
X142559063Y-107184408D01*
X142579659Y-106949000D01*
X142559063Y-106713592D01*
X142497903Y-106485337D01*
X142398035Y-106271171D01*
X142262495Y-106077599D01*
X142140567Y-105955671D01*
X142107084Y-105894351D01*
X142112068Y-105824659D01*
X142153939Y-105768725D01*
X142184915Y-105751810D01*
X142316331Y-105702796D01*
X142431546Y-105616546D01*
X142517796Y-105501331D01*
X142568091Y-105366483D01*
X142574500Y-105306873D01*
X142574499Y-104715699D01*
X142594183Y-104648661D01*
X142610813Y-104628024D01*
X143614111Y-103624729D01*
X143688478Y-103522369D01*
X143688480Y-103522369D01*
X143719164Y-103480136D01*
X143719163Y-103480136D01*
X143719167Y-103480132D01*
X143800309Y-103320881D01*
X143855540Y-103150897D01*
X143883500Y-102974366D01*
X143883500Y-86016634D01*
X143883500Y-68998634D01*
X143855540Y-68822103D01*
X143855539Y-68822099D01*
X143855539Y-68822098D01*
X143800310Y-68652121D01*
X143800308Y-68652118D01*
X143778781Y-68609867D01*
X143719167Y-68492868D01*
X143614111Y-68348272D01*
X143487728Y-68221889D01*
X143343132Y-68116833D01*
X143202122Y-68044985D01*
X143151326Y-67997010D01*
X143134531Y-67929189D01*
X143157068Y-67863055D01*
X143211783Y-67819603D01*
X143258417Y-67810500D01*
X144409500Y-67810500D01*
X144476539Y-67830185D01*
X144522294Y-67882989D01*
X144533500Y-67934500D01*
X144533500Y-119263500D01*
X144513815Y-119330539D01*
X144461011Y-119376294D01*
X144409500Y-119387500D01*
X95620500Y-119387500D01*
X95553461Y-119367815D01*
X95507706Y-119315011D01*
X95496500Y-119263500D01*
X95496500Y-71373998D01*
X96611532Y-71373998D01*
X96611532Y-71374001D01*
X96631364Y-71600686D01*
X96631366Y-71600697D01*
X96690258Y-71820488D01*
X96690261Y-71820497D01*
X96786431Y-72026732D01*
X96786432Y-72026734D01*
X96916954Y-72213141D01*
X97077858Y-72374045D01*
X97077861Y-72374047D01*
X97264266Y-72504568D01*
X97470504Y-72600739D01*
X97690308Y-72659635D01*
X97852230Y-72673801D01*
X97916998Y-72679468D01*
X97917000Y-72679468D01*
X97917002Y-72679468D01*
X97973673Y-72674509D01*
X98143692Y-72659635D01*
X98363496Y-72600739D01*
X98569734Y-72504568D01*
X98756139Y-72374047D01*
X98917047Y-72213139D01*
X99047568Y-72026734D01*
X99143739Y-71820496D01*
X99202635Y-71600692D01*
X99222468Y-71374000D01*
X99202635Y-71147308D01*
X99196389Y-71123999D01*
X109338127Y-71123999D01*
X109338128Y-71124000D01*
X110301314Y-71124000D01*
X110296920Y-71128394D01*
X110244259Y-71219606D01*
X110217000Y-71321339D01*
X110217000Y-71426661D01*
X110244259Y-71528394D01*
X110296920Y-71619606D01*
X110301314Y-71624000D01*
X109338128Y-71624000D01*
X109390730Y-71820317D01*
X109390734Y-71820326D01*
X109486865Y-72026482D01*
X109617342Y-72212820D01*
X109778179Y-72373657D01*
X109964517Y-72504134D01*
X110170673Y-72600265D01*
X110170682Y-72600269D01*
X110366999Y-72652872D01*
X110367000Y-72652871D01*
X110367000Y-71689686D01*
X110371394Y-71694080D01*
X110462606Y-71746741D01*
X110564339Y-71774000D01*
X110669661Y-71774000D01*
X110771394Y-71746741D01*
X110862606Y-71694080D01*
X110867000Y-71689686D01*
X110867000Y-72652872D01*
X111063317Y-72600269D01*
X111063326Y-72600265D01*
X111269482Y-72504134D01*
X111455820Y-72373657D01*
X111616657Y-72212820D01*
X111747134Y-72026482D01*
X111843265Y-71820326D01*
X111843269Y-71820317D01*
X111895872Y-71624000D01*
X110932686Y-71624000D01*
X110937080Y-71619606D01*
X110989741Y-71528394D01*
X111017000Y-71426661D01*
X111017000Y-71321339D01*
X110989741Y-71219606D01*
X110937080Y-71128394D01*
X110932686Y-71124000D01*
X111895872Y-71124000D01*
X111895872Y-71123999D01*
X111843269Y-70927682D01*
X111843265Y-70927673D01*
X111747134Y-70721517D01*
X111616657Y-70535179D01*
X111455820Y-70374342D01*
X111269482Y-70243865D01*
X111063328Y-70147734D01*
X110867000Y-70095127D01*
X110867000Y-71058314D01*
X110862606Y-71053920D01*
X110771394Y-71001259D01*
X110669661Y-70974000D01*
X110564339Y-70974000D01*
X110462606Y-71001259D01*
X110371394Y-71053920D01*
X110367000Y-71058314D01*
X110367000Y-70095127D01*
X110170671Y-70147734D01*
X109964517Y-70243865D01*
X109778179Y-70374342D01*
X109617342Y-70535179D01*
X109486865Y-70721517D01*
X109390734Y-70927673D01*
X109390730Y-70927682D01*
X109338127Y-71123999D01*
X99196389Y-71123999D01*
X99143739Y-70927504D01*
X99047568Y-70721266D01*
X98917047Y-70534861D01*
X98917045Y-70534858D01*
X98756141Y-70373954D01*
X98569734Y-70243432D01*
X98569732Y-70243431D01*
X98363497Y-70147261D01*
X98363488Y-70147258D01*
X98143697Y-70088366D01*
X98143693Y-70088365D01*
X98143692Y-70088365D01*
X98143691Y-70088364D01*
X98143686Y-70088364D01*
X97917002Y-70068532D01*
X97916998Y-70068532D01*
X97690313Y-70088364D01*
X97690302Y-70088366D01*
X97470511Y-70147258D01*
X97470502Y-70147261D01*
X97264267Y-70243431D01*
X97264265Y-70243432D01*
X97077858Y-70373954D01*
X96916954Y-70534858D01*
X96786432Y-70721265D01*
X96786431Y-70721267D01*
X96690261Y-70927502D01*
X96690258Y-70927511D01*
X96631366Y-71147302D01*
X96631364Y-71147313D01*
X96611532Y-71373998D01*
X95496500Y-71373998D01*
X95496500Y-67934500D01*
X95516185Y-67867461D01*
X95568989Y-67821706D01*
X95620500Y-67810500D01*
X122933583Y-67810500D01*
X123000622Y-67830185D01*
G37*
%TD.AperFunction*%
%TA.AperFunction,Conductor*%
G36*
X126587699Y-70243185D02*
G01*
X126633454Y-70295989D01*
X126643398Y-70365147D01*
X126614373Y-70428703D01*
X126608341Y-70435181D01*
X126508342Y-70535179D01*
X126377865Y-70721517D01*
X126281734Y-70927673D01*
X126281730Y-70927682D01*
X126229127Y-71123999D01*
X126229128Y-71124000D01*
X127192314Y-71124000D01*
X127187920Y-71128394D01*
X127135259Y-71219606D01*
X127108000Y-71321339D01*
X127108000Y-71426661D01*
X127135259Y-71528394D01*
X127187920Y-71619606D01*
X127192314Y-71624000D01*
X126229128Y-71624000D01*
X126281730Y-71820317D01*
X126281734Y-71820326D01*
X126377865Y-72026482D01*
X126508342Y-72212820D01*
X126669179Y-72373657D01*
X126855517Y-72504134D01*
X127061673Y-72600265D01*
X127061682Y-72600269D01*
X127257999Y-72652872D01*
X127258000Y-72652871D01*
X127258000Y-71689686D01*
X127262394Y-71694080D01*
X127353606Y-71746741D01*
X127455339Y-71774000D01*
X127560661Y-71774000D01*
X127662394Y-71746741D01*
X127753606Y-71694080D01*
X127758000Y-71689686D01*
X127758000Y-72652872D01*
X127954317Y-72600269D01*
X127954326Y-72600265D01*
X128160482Y-72504134D01*
X128346820Y-72373657D01*
X128507657Y-72212820D01*
X128638134Y-72026482D01*
X128734265Y-71820326D01*
X128734269Y-71820317D01*
X128786872Y-71624000D01*
X127823686Y-71624000D01*
X127828080Y-71619606D01*
X127880741Y-71528394D01*
X127908000Y-71426661D01*
X127908000Y-71321339D01*
X127880741Y-71219606D01*
X127828080Y-71128394D01*
X127823686Y-71124000D01*
X128786872Y-71124000D01*
X128786872Y-71123999D01*
X128734269Y-70927682D01*
X128734265Y-70927673D01*
X128638134Y-70721517D01*
X128507657Y-70535179D01*
X128407659Y-70435181D01*
X128374174Y-70373858D01*
X128379158Y-70304166D01*
X128421030Y-70248233D01*
X128486494Y-70223816D01*
X128495340Y-70223500D01*
X139219951Y-70223500D01*
X139286990Y-70243185D01*
X139332745Y-70295989D01*
X139342689Y-70365147D01*
X139313664Y-70428703D01*
X139307632Y-70435181D01*
X139207954Y-70534858D01*
X139077432Y-70721265D01*
X139077431Y-70721267D01*
X138981261Y-70927502D01*
X138981258Y-70927511D01*
X138922366Y-71147302D01*
X138922364Y-71147313D01*
X138902532Y-71373998D01*
X138902532Y-71374001D01*
X138922364Y-71600686D01*
X138922366Y-71600697D01*
X138981258Y-71820488D01*
X138981261Y-71820497D01*
X139077431Y-72026732D01*
X139077432Y-72026734D01*
X139207954Y-72213141D01*
X139368858Y-72374045D01*
X139368861Y-72374047D01*
X139555266Y-72504568D01*
X139761504Y-72600739D01*
X139981308Y-72659635D01*
X140143230Y-72673801D01*
X140207998Y-72679468D01*
X140208000Y-72679468D01*
X140208002Y-72679468D01*
X140264673Y-72674509D01*
X140434692Y-72659635D01*
X140654496Y-72600739D01*
X140860734Y-72504568D01*
X141047139Y-72374047D01*
X141208047Y-72213139D01*
X141338568Y-72026734D01*
X141376119Y-71946205D01*
X141422290Y-71893768D01*
X141489484Y-71874616D01*
X141556365Y-71894832D01*
X141601699Y-71947997D01*
X141612500Y-71998612D01*
X141612500Y-84856500D01*
X141592815Y-84923539D01*
X141540011Y-84969294D01*
X141488500Y-84980500D01*
X141023549Y-84980500D01*
X140956510Y-84960815D01*
X140924282Y-84930810D01*
X140907550Y-84908458D01*
X140907547Y-84908455D01*
X140907546Y-84908454D01*
X140894185Y-84898452D01*
X140792335Y-84822206D01*
X140792328Y-84822202D01*
X140657482Y-84771908D01*
X140657483Y-84771908D01*
X140597883Y-84765501D01*
X140597881Y-84765500D01*
X140597873Y-84765500D01*
X140597864Y-84765500D01*
X138802129Y-84765500D01*
X138802123Y-84765501D01*
X138742516Y-84771908D01*
X138607671Y-84822202D01*
X138607664Y-84822206D01*
X138492455Y-84908452D01*
X138492452Y-84908455D01*
X138406206Y-85023664D01*
X138406202Y-85023671D01*
X138355908Y-85158517D01*
X138349501Y-85218116D01*
X138349500Y-85218135D01*
X138349500Y-87013870D01*
X138349501Y-87013876D01*
X138355908Y-87073483D01*
X138406202Y-87208328D01*
X138406206Y-87208335D01*
X138492452Y-87323544D01*
X138492455Y-87323547D01*
X138607664Y-87409793D01*
X138607671Y-87409797D01*
X138739081Y-87458810D01*
X138795015Y-87500681D01*
X138819432Y-87566145D01*
X138804580Y-87634418D01*
X138783430Y-87662673D01*
X138661503Y-87784600D01*
X138527749Y-87975623D01*
X138473172Y-88019248D01*
X138426174Y-88028500D01*
X132741281Y-88028500D01*
X132674242Y-88008815D01*
X132628487Y-87956011D01*
X132618543Y-87886853D01*
X132647568Y-87823297D01*
X132653600Y-87816819D01*
X135996411Y-84474008D01*
X136123411Y-84347008D01*
X136192083Y-84244233D01*
X136239385Y-84130035D01*
X136263500Y-84008803D01*
X136263500Y-77653731D01*
X136283185Y-77586692D01*
X136328483Y-77544676D01*
X136404624Y-77503471D01*
X136404623Y-77503471D01*
X136404626Y-77503470D01*
X136587784Y-77360913D01*
X136744979Y-77190153D01*
X136871924Y-76995849D01*
X136965157Y-76783300D01*
X137022134Y-76558305D01*
X137041300Y-76327000D01*
X137041300Y-76326993D01*
X137022135Y-76095702D01*
X137022133Y-76095691D01*
X136965157Y-75870699D01*
X136871924Y-75658151D01*
X136744983Y-75463852D01*
X136744980Y-75463849D01*
X136744979Y-75463847D01*
X136587784Y-75293087D01*
X136587779Y-75293083D01*
X136587777Y-75293081D01*
X136404634Y-75150535D01*
X136404628Y-75150531D01*
X136200504Y-75040064D01*
X136200495Y-75040061D01*
X135980984Y-74964702D01*
X135790450Y-74932908D01*
X135752049Y-74926500D01*
X135519951Y-74926500D01*
X135481550Y-74932908D01*
X135291015Y-74964702D01*
X135071504Y-75040061D01*
X135071495Y-75040064D01*
X134867371Y-75150531D01*
X134867365Y-75150535D01*
X134684222Y-75293081D01*
X134684218Y-75293085D01*
X134675866Y-75302158D01*
X134615979Y-75338148D01*
X134546141Y-75336047D01*
X134488525Y-75296522D01*
X134468455Y-75261507D01*
X134439797Y-75184671D01*
X134439793Y-75184664D01*
X134353547Y-75069455D01*
X134353544Y-75069452D01*
X134238335Y-74983206D01*
X134238328Y-74983202D01*
X134103482Y-74932908D01*
X134103483Y-74932908D01*
X134043883Y-74926501D01*
X134043881Y-74926500D01*
X134043873Y-74926500D01*
X134043864Y-74926500D01*
X132148129Y-74926500D01*
X132148123Y-74926501D01*
X132088516Y-74932908D01*
X131953671Y-74983202D01*
X131953664Y-74983206D01*
X131838455Y-75069452D01*
X131838452Y-75069455D01*
X131752206Y-75184664D01*
X131752202Y-75184671D01*
X131701908Y-75319517D01*
X131695501Y-75379116D01*
X131695500Y-75379135D01*
X131695500Y-77274870D01*
X131695501Y-77274876D01*
X131701908Y-77334483D01*
X131752202Y-77469328D01*
X131752206Y-77469335D01*
X131838452Y-77584544D01*
X131838455Y-77584547D01*
X131953664Y-77670793D01*
X131953671Y-77670797D01*
X132088517Y-77721091D01*
X132088516Y-77721091D01*
X132095444Y-77721835D01*
X132148127Y-77727500D01*
X134043872Y-77727499D01*
X134103483Y-77721091D01*
X134238331Y-77670796D01*
X134353546Y-77584546D01*
X134439796Y-77469331D01*
X134464957Y-77401872D01*
X134468455Y-77392493D01*
X134510326Y-77336559D01*
X134575790Y-77312141D01*
X134644063Y-77326992D01*
X134675866Y-77351843D01*
X134683302Y-77359920D01*
X134684215Y-77360912D01*
X134684222Y-77360918D01*
X134867365Y-77503464D01*
X134867375Y-77503471D01*
X134943517Y-77544676D01*
X134993108Y-77593895D01*
X135008500Y-77653731D01*
X135008500Y-83635719D01*
X134988815Y-83702758D01*
X134972181Y-83723400D01*
X130703400Y-87992181D01*
X130642077Y-88025666D01*
X130615719Y-88028500D01*
X124539787Y-88028500D01*
X124472748Y-88008815D01*
X124438212Y-87975623D01*
X124327045Y-87816858D01*
X124166141Y-87655954D01*
X123979734Y-87525432D01*
X123979728Y-87525429D01*
X123952038Y-87512517D01*
X123921724Y-87498381D01*
X123869285Y-87452210D01*
X123850133Y-87385017D01*
X123870348Y-87318135D01*
X123921725Y-87273618D01*
X123979734Y-87246568D01*
X124166139Y-87116047D01*
X124327047Y-86955139D01*
X124457568Y-86768734D01*
X124553739Y-86562496D01*
X124612635Y-86342692D01*
X124632468Y-86116000D01*
X124612635Y-85889308D01*
X124553739Y-85669504D01*
X124474118Y-85498756D01*
X124462500Y-85446351D01*
X124462500Y-70347500D01*
X124482185Y-70280461D01*
X124534989Y-70234706D01*
X124586500Y-70223500D01*
X126520660Y-70223500D01*
X126587699Y-70243185D01*
G37*
%TD.AperFunction*%
%TD*%
M02*
