%TF.GenerationSoftware,KiCad,Pcbnew,8.0.8*%
%TF.CreationDate,2025-02-18T10:54:12-06:00*%
%TF.ProjectId,ATTinyFlashLEDs_noSwitch,41545469-6e79-4466-9c61-73684c454473,rev?*%
%TF.SameCoordinates,Original*%
%TF.FileFunction,Legend,Bot*%
%TF.FilePolarity,Positive*%
%FSLAX46Y46*%
G04 Gerber Fmt 4.6, Leading zero omitted, Abs format (unit mm)*
G04 Created by KiCad (PCBNEW 8.0.8) date 2025-02-18 10:54:12*
%MOMM*%
%LPD*%
G01*
G04 APERTURE LIST*
%ADD10C,0.150000*%
%ADD11C,0.120000*%
G04 APERTURE END LIST*
D10*
X120165714Y-95492009D02*
X120022857Y-95539628D01*
X120022857Y-95539628D02*
X119975238Y-95587247D01*
X119975238Y-95587247D02*
X119927619Y-95682485D01*
X119927619Y-95682485D02*
X119927619Y-95825342D01*
X119927619Y-95825342D02*
X119975238Y-95920580D01*
X119975238Y-95920580D02*
X120022857Y-95968200D01*
X120022857Y-95968200D02*
X120118095Y-96015819D01*
X120118095Y-96015819D02*
X120499047Y-96015819D01*
X120499047Y-96015819D02*
X120499047Y-95015819D01*
X120499047Y-95015819D02*
X120165714Y-95015819D01*
X120165714Y-95015819D02*
X120070476Y-95063438D01*
X120070476Y-95063438D02*
X120022857Y-95111057D01*
X120022857Y-95111057D02*
X119975238Y-95206295D01*
X119975238Y-95206295D02*
X119975238Y-95301533D01*
X119975238Y-95301533D02*
X120022857Y-95396771D01*
X120022857Y-95396771D02*
X120070476Y-95444390D01*
X120070476Y-95444390D02*
X120165714Y-95492009D01*
X120165714Y-95492009D02*
X120499047Y-95492009D01*
X119641904Y-95015819D02*
X119070476Y-95015819D01*
X119356190Y-96015819D02*
X119356190Y-95015819D01*
X118213333Y-96015819D02*
X118784761Y-96015819D01*
X118499047Y-96015819D02*
X118499047Y-95015819D01*
X118499047Y-95015819D02*
X118594285Y-95158676D01*
X118594285Y-95158676D02*
X118689523Y-95253914D01*
X118689523Y-95253914D02*
X118784761Y-95301533D01*
X131992666Y-82369819D02*
X132325999Y-81893628D01*
X132564094Y-82369819D02*
X132564094Y-81369819D01*
X132564094Y-81369819D02*
X132183142Y-81369819D01*
X132183142Y-81369819D02*
X132087904Y-81417438D01*
X132087904Y-81417438D02*
X132040285Y-81465057D01*
X132040285Y-81465057D02*
X131992666Y-81560295D01*
X131992666Y-81560295D02*
X131992666Y-81703152D01*
X131992666Y-81703152D02*
X132040285Y-81798390D01*
X132040285Y-81798390D02*
X132087904Y-81846009D01*
X132087904Y-81846009D02*
X132183142Y-81893628D01*
X132183142Y-81893628D02*
X132564094Y-81893628D01*
X131611713Y-81465057D02*
X131564094Y-81417438D01*
X131564094Y-81417438D02*
X131468856Y-81369819D01*
X131468856Y-81369819D02*
X131230761Y-81369819D01*
X131230761Y-81369819D02*
X131135523Y-81417438D01*
X131135523Y-81417438D02*
X131087904Y-81465057D01*
X131087904Y-81465057D02*
X131040285Y-81560295D01*
X131040285Y-81560295D02*
X131040285Y-81655533D01*
X131040285Y-81655533D02*
X131087904Y-81798390D01*
X131087904Y-81798390D02*
X131659332Y-82369819D01*
X131659332Y-82369819D02*
X131040285Y-82369819D01*
X104306666Y-82275819D02*
X104639999Y-81799628D01*
X104878094Y-82275819D02*
X104878094Y-81275819D01*
X104878094Y-81275819D02*
X104497142Y-81275819D01*
X104497142Y-81275819D02*
X104401904Y-81323438D01*
X104401904Y-81323438D02*
X104354285Y-81371057D01*
X104354285Y-81371057D02*
X104306666Y-81466295D01*
X104306666Y-81466295D02*
X104306666Y-81609152D01*
X104306666Y-81609152D02*
X104354285Y-81704390D01*
X104354285Y-81704390D02*
X104401904Y-81752009D01*
X104401904Y-81752009D02*
X104497142Y-81799628D01*
X104497142Y-81799628D02*
X104878094Y-81799628D01*
X103354285Y-82275819D02*
X103925713Y-82275819D01*
X103639999Y-82275819D02*
X103639999Y-81275819D01*
X103639999Y-81275819D02*
X103735237Y-81418676D01*
X103735237Y-81418676D02*
X103830475Y-81513914D01*
X103830475Y-81513914D02*
X103925713Y-81561533D01*
D11*
%TO.C,BT1*%
X108600000Y-101601000D02*
X110680000Y-99521000D01*
X108600000Y-104061000D02*
X108600000Y-101601000D01*
X108600000Y-110691000D02*
X108600000Y-110061000D01*
X110040000Y-114641000D02*
X108600000Y-110691000D01*
X114180000Y-99521000D02*
X110680000Y-99521000D01*
X128080000Y-99521000D02*
X124580000Y-99521000D01*
X128720000Y-114641000D02*
X130160000Y-110691000D01*
X130160000Y-101601000D02*
X128080000Y-99521000D01*
X130160000Y-104061000D02*
X130160000Y-101601000D01*
X130160000Y-110691000D02*
X130160000Y-110061000D01*
X113380000Y-115611000D02*
G75*
G02*
X110054757Y-114649169I-1310000J1700000D01*
G01*
X128720000Y-114641000D02*
G75*
G02*
X125383354Y-115627530I-2030000J730001D01*
G01*
%TO.C,R2*%
X131571276Y-79995500D02*
X132080724Y-79995500D01*
X131571276Y-81040500D02*
X132080724Y-81040500D01*
%TO.C,R1*%
X104394724Y-79868500D02*
X103885276Y-79868500D01*
X104394724Y-80913500D02*
X103885276Y-80913500D01*
%TD*%
M02*
