%TF.GenerationSoftware,KiCad,Pcbnew,8.0.8*%
%TF.CreationDate,2025-02-18T10:54:12-06:00*%
%TF.ProjectId,ATTinyFlashLEDs_noSwitch,41545469-6e79-4466-9c61-73684c454473,rev?*%
%TF.SameCoordinates,Original*%
%TF.FileFunction,Legend,Top*%
%TF.FilePolarity,Positive*%
%FSLAX46Y46*%
G04 Gerber Fmt 4.6, Leading zero omitted, Abs format (unit mm)*
G04 Created by KiCad (PCBNEW 8.0.8) date 2025-02-18 10:54:12*
%MOMM*%
%LPD*%
G01*
G04 APERTURE LIST*
%ADD10C,0.100000*%
%ADD11C,0.150000*%
%ADD12C,0.120000*%
%ADD13C,0.000000*%
G04 APERTURE END LIST*
D10*
X141972360Y-111521419D02*
X142162836Y-111521419D01*
X142162836Y-111521419D02*
X142258074Y-111569038D01*
X142258074Y-111569038D02*
X142353312Y-111664276D01*
X142353312Y-111664276D02*
X142400931Y-111854752D01*
X142400931Y-111854752D02*
X142400931Y-112188085D01*
X142400931Y-112188085D02*
X142353312Y-112378561D01*
X142353312Y-112378561D02*
X142258074Y-112473800D01*
X142258074Y-112473800D02*
X142162836Y-112521419D01*
X142162836Y-112521419D02*
X141972360Y-112521419D01*
X141972360Y-112521419D02*
X141877122Y-112473800D01*
X141877122Y-112473800D02*
X141781884Y-112378561D01*
X141781884Y-112378561D02*
X141734265Y-112188085D01*
X141734265Y-112188085D02*
X141734265Y-111854752D01*
X141734265Y-111854752D02*
X141781884Y-111664276D01*
X141781884Y-111664276D02*
X141877122Y-111569038D01*
X141877122Y-111569038D02*
X141972360Y-111521419D01*
X143162836Y-111997609D02*
X142829503Y-111997609D01*
X142829503Y-112521419D02*
X142829503Y-111521419D01*
X142829503Y-111521419D02*
X143305693Y-111521419D01*
X144019979Y-111997609D02*
X143686646Y-111997609D01*
X143686646Y-112521419D02*
X143686646Y-111521419D01*
X143686646Y-111521419D02*
X144162836Y-111521419D01*
X142734360Y-101488419D02*
X142924836Y-101488419D01*
X142924836Y-101488419D02*
X143020074Y-101536038D01*
X143020074Y-101536038D02*
X143115312Y-101631276D01*
X143115312Y-101631276D02*
X143162931Y-101821752D01*
X143162931Y-101821752D02*
X143162931Y-102155085D01*
X143162931Y-102155085D02*
X143115312Y-102345561D01*
X143115312Y-102345561D02*
X143020074Y-102440800D01*
X143020074Y-102440800D02*
X142924836Y-102488419D01*
X142924836Y-102488419D02*
X142734360Y-102488419D01*
X142734360Y-102488419D02*
X142639122Y-102440800D01*
X142639122Y-102440800D02*
X142543884Y-102345561D01*
X142543884Y-102345561D02*
X142496265Y-102155085D01*
X142496265Y-102155085D02*
X142496265Y-101821752D01*
X142496265Y-101821752D02*
X142543884Y-101631276D01*
X142543884Y-101631276D02*
X142639122Y-101536038D01*
X142639122Y-101536038D02*
X142734360Y-101488419D01*
X143591503Y-102488419D02*
X143591503Y-101488419D01*
X143591503Y-101488419D02*
X144162931Y-102488419D01*
X144162931Y-102488419D02*
X144162931Y-101488419D01*
D11*
X118755095Y-83240819D02*
X118755095Y-84050342D01*
X118755095Y-84050342D02*
X118802714Y-84145580D01*
X118802714Y-84145580D02*
X118850333Y-84193200D01*
X118850333Y-84193200D02*
X118945571Y-84240819D01*
X118945571Y-84240819D02*
X119136047Y-84240819D01*
X119136047Y-84240819D02*
X119231285Y-84193200D01*
X119231285Y-84193200D02*
X119278904Y-84145580D01*
X119278904Y-84145580D02*
X119326523Y-84050342D01*
X119326523Y-84050342D02*
X119326523Y-83240819D01*
X120326523Y-84240819D02*
X119755095Y-84240819D01*
X120040809Y-84240819D02*
X120040809Y-83240819D01*
X120040809Y-83240819D02*
X119945571Y-83383676D01*
X119945571Y-83383676D02*
X119850333Y-83478914D01*
X119850333Y-83478914D02*
X119755095Y-83526533D01*
X98218666Y-83230819D02*
X98218666Y-83945104D01*
X98218666Y-83945104D02*
X98171047Y-84087961D01*
X98171047Y-84087961D02*
X98075809Y-84183200D01*
X98075809Y-84183200D02*
X97932952Y-84230819D01*
X97932952Y-84230819D02*
X97837714Y-84230819D01*
X99218666Y-84230819D02*
X98647238Y-84230819D01*
X98932952Y-84230819D02*
X98932952Y-83230819D01*
X98932952Y-83230819D02*
X98837714Y-83373676D01*
X98837714Y-83373676D02*
X98742476Y-83468914D01*
X98742476Y-83468914D02*
X98647238Y-83516533D01*
X104100333Y-69108819D02*
X103767000Y-68632628D01*
X103528905Y-69108819D02*
X103528905Y-68108819D01*
X103528905Y-68108819D02*
X103909857Y-68108819D01*
X103909857Y-68108819D02*
X104005095Y-68156438D01*
X104005095Y-68156438D02*
X104052714Y-68204057D01*
X104052714Y-68204057D02*
X104100333Y-68299295D01*
X104100333Y-68299295D02*
X104100333Y-68442152D01*
X104100333Y-68442152D02*
X104052714Y-68537390D01*
X104052714Y-68537390D02*
X104005095Y-68585009D01*
X104005095Y-68585009D02*
X103909857Y-68632628D01*
X103909857Y-68632628D02*
X103528905Y-68632628D01*
X104957476Y-68442152D02*
X104957476Y-69108819D01*
X104719381Y-68061200D02*
X104481286Y-68775485D01*
X104481286Y-68775485D02*
X105100333Y-68775485D01*
X137183905Y-76781819D02*
X137183905Y-75781819D01*
X137183905Y-75781819D02*
X137422000Y-75781819D01*
X137422000Y-75781819D02*
X137564857Y-75829438D01*
X137564857Y-75829438D02*
X137660095Y-75924676D01*
X137660095Y-75924676D02*
X137707714Y-76019914D01*
X137707714Y-76019914D02*
X137755333Y-76210390D01*
X137755333Y-76210390D02*
X137755333Y-76353247D01*
X137755333Y-76353247D02*
X137707714Y-76543723D01*
X137707714Y-76543723D02*
X137660095Y-76638961D01*
X137660095Y-76638961D02*
X137564857Y-76734200D01*
X137564857Y-76734200D02*
X137422000Y-76781819D01*
X137422000Y-76781819D02*
X137183905Y-76781819D01*
X138136286Y-75877057D02*
X138183905Y-75829438D01*
X138183905Y-75829438D02*
X138279143Y-75781819D01*
X138279143Y-75781819D02*
X138517238Y-75781819D01*
X138517238Y-75781819D02*
X138612476Y-75829438D01*
X138612476Y-75829438D02*
X138660095Y-75877057D01*
X138660095Y-75877057D02*
X138707714Y-75972295D01*
X138707714Y-75972295D02*
X138707714Y-76067533D01*
X138707714Y-76067533D02*
X138660095Y-76210390D01*
X138660095Y-76210390D02*
X138088667Y-76781819D01*
X138088667Y-76781819D02*
X138707714Y-76781819D01*
X143176666Y-106515819D02*
X143176666Y-107230104D01*
X143176666Y-107230104D02*
X143129047Y-107372961D01*
X143129047Y-107372961D02*
X143033809Y-107468200D01*
X143033809Y-107468200D02*
X142890952Y-107515819D01*
X142890952Y-107515819D02*
X142795714Y-107515819D01*
X143557619Y-106515819D02*
X144176666Y-106515819D01*
X144176666Y-106515819D02*
X143843333Y-106896771D01*
X143843333Y-106896771D02*
X143986190Y-106896771D01*
X143986190Y-106896771D02*
X144081428Y-106944390D01*
X144081428Y-106944390D02*
X144129047Y-106992009D01*
X144129047Y-106992009D02*
X144176666Y-107087247D01*
X144176666Y-107087247D02*
X144176666Y-107325342D01*
X144176666Y-107325342D02*
X144129047Y-107420580D01*
X144129047Y-107420580D02*
X144081428Y-107468200D01*
X144081428Y-107468200D02*
X143986190Y-107515819D01*
X143986190Y-107515819D02*
X143700476Y-107515819D01*
X143700476Y-107515819D02*
X143605238Y-107468200D01*
X143605238Y-107468200D02*
X143557619Y-107420580D01*
X99464905Y-76781819D02*
X99464905Y-75781819D01*
X99464905Y-75781819D02*
X99703000Y-75781819D01*
X99703000Y-75781819D02*
X99845857Y-75829438D01*
X99845857Y-75829438D02*
X99941095Y-75924676D01*
X99941095Y-75924676D02*
X99988714Y-76019914D01*
X99988714Y-76019914D02*
X100036333Y-76210390D01*
X100036333Y-76210390D02*
X100036333Y-76353247D01*
X100036333Y-76353247D02*
X99988714Y-76543723D01*
X99988714Y-76543723D02*
X99941095Y-76638961D01*
X99941095Y-76638961D02*
X99845857Y-76734200D01*
X99845857Y-76734200D02*
X99703000Y-76781819D01*
X99703000Y-76781819D02*
X99464905Y-76781819D01*
X100988714Y-76781819D02*
X100417286Y-76781819D01*
X100703000Y-76781819D02*
X100703000Y-75781819D01*
X100703000Y-75781819D02*
X100607762Y-75924676D01*
X100607762Y-75924676D02*
X100512524Y-76019914D01*
X100512524Y-76019914D02*
X100417286Y-76067533D01*
X139366666Y-83240819D02*
X139366666Y-83955104D01*
X139366666Y-83955104D02*
X139319047Y-84097961D01*
X139319047Y-84097961D02*
X139223809Y-84193200D01*
X139223809Y-84193200D02*
X139080952Y-84240819D01*
X139080952Y-84240819D02*
X138985714Y-84240819D01*
X139795238Y-83336057D02*
X139842857Y-83288438D01*
X139842857Y-83288438D02*
X139938095Y-83240819D01*
X139938095Y-83240819D02*
X140176190Y-83240819D01*
X140176190Y-83240819D02*
X140271428Y-83288438D01*
X140271428Y-83288438D02*
X140319047Y-83336057D01*
X140319047Y-83336057D02*
X140366666Y-83431295D01*
X140366666Y-83431295D02*
X140366666Y-83526533D01*
X140366666Y-83526533D02*
X140319047Y-83669390D01*
X140319047Y-83669390D02*
X139747619Y-84240819D01*
X139747619Y-84240819D02*
X140366666Y-84240819D01*
X133437333Y-69034819D02*
X133104000Y-68558628D01*
X132865905Y-69034819D02*
X132865905Y-68034819D01*
X132865905Y-68034819D02*
X133246857Y-68034819D01*
X133246857Y-68034819D02*
X133342095Y-68082438D01*
X133342095Y-68082438D02*
X133389714Y-68130057D01*
X133389714Y-68130057D02*
X133437333Y-68225295D01*
X133437333Y-68225295D02*
X133437333Y-68368152D01*
X133437333Y-68368152D02*
X133389714Y-68463390D01*
X133389714Y-68463390D02*
X133342095Y-68511009D01*
X133342095Y-68511009D02*
X133246857Y-68558628D01*
X133246857Y-68558628D02*
X132865905Y-68558628D01*
X133770667Y-68034819D02*
X134389714Y-68034819D01*
X134389714Y-68034819D02*
X134056381Y-68415771D01*
X134056381Y-68415771D02*
X134199238Y-68415771D01*
X134199238Y-68415771D02*
X134294476Y-68463390D01*
X134294476Y-68463390D02*
X134342095Y-68511009D01*
X134342095Y-68511009D02*
X134389714Y-68606247D01*
X134389714Y-68606247D02*
X134389714Y-68844342D01*
X134389714Y-68844342D02*
X134342095Y-68939580D01*
X134342095Y-68939580D02*
X134294476Y-68987200D01*
X134294476Y-68987200D02*
X134199238Y-69034819D01*
X134199238Y-69034819D02*
X133913524Y-69034819D01*
X133913524Y-69034819D02*
X133818286Y-68987200D01*
X133818286Y-68987200D02*
X133770667Y-68939580D01*
D12*
%TO.C,U1*%
X116867000Y-84786000D02*
X116867000Y-95066000D01*
X116867000Y-95066000D02*
X122167000Y-95066000D01*
X118517000Y-84786000D02*
X116867000Y-84786000D01*
X122167000Y-84786000D02*
X120517000Y-84786000D01*
X122167000Y-95066000D02*
X122167000Y-84786000D01*
X120517000Y-84786000D02*
G75*
G02*
X118517000Y-84786000I-1000000J0D01*
G01*
D13*
%TO.C,G\u002A\u002A\u002A*%
G36*
X104211548Y-99092372D02*
G01*
X104641961Y-101480829D01*
X105456533Y-103702941D01*
X106632789Y-105732554D01*
X108148258Y-107543516D01*
X109980466Y-109109675D01*
X112106941Y-110404879D01*
X114505209Y-111402975D01*
X114898407Y-111528966D01*
X116400372Y-111860188D01*
X118150768Y-112035854D01*
X119997116Y-112055966D01*
X121786939Y-111920522D01*
X123367758Y-111629523D01*
X123723831Y-111528966D01*
X126019060Y-110635402D01*
X128133875Y-109443299D01*
X130011726Y-107997178D01*
X131596060Y-106341558D01*
X132830330Y-104520958D01*
X132978146Y-104243463D01*
X133569967Y-102850710D01*
X134051932Y-101251840D01*
X134362162Y-99664967D01*
X134417177Y-99170992D01*
X134549714Y-97623513D01*
X136379694Y-97623513D01*
X138209674Y-97623513D01*
X138078150Y-99277714D01*
X137648609Y-102064405D01*
X136828281Y-104710694D01*
X135640880Y-107182309D01*
X134110126Y-109444972D01*
X132259734Y-111464408D01*
X130113421Y-113206343D01*
X127694905Y-114636500D01*
X127328077Y-114813587D01*
X125044585Y-115686791D01*
X122583911Y-116270448D01*
X120058535Y-116551177D01*
X117580935Y-116515601D01*
X115544170Y-116215260D01*
X114518471Y-115966620D01*
X113482929Y-115677980D01*
X112637354Y-115405623D01*
X112530611Y-115366401D01*
X110266012Y-114299069D01*
X108106633Y-112870711D01*
X106116326Y-111144645D01*
X104358940Y-109184190D01*
X102898328Y-107052665D01*
X101798339Y-104813387D01*
X101741455Y-104667210D01*
X101409002Y-103657117D01*
X101087912Y-102435769D01*
X100807749Y-101144401D01*
X100598078Y-99924246D01*
X100488465Y-98916538D01*
X100480972Y-98690740D01*
X101521667Y-98690740D01*
X101671978Y-99918051D01*
X101855765Y-100981647D01*
X102152407Y-102227153D01*
X102518872Y-103505043D01*
X102912129Y-104665790D01*
X103289147Y-105559869D01*
X103304209Y-105589797D01*
X104721977Y-107934251D01*
X106433403Y-110000859D01*
X108399795Y-111770270D01*
X110582461Y-113223138D01*
X112942708Y-114340112D01*
X115441843Y-115101845D01*
X118041173Y-115488987D01*
X120702007Y-115482191D01*
X122585692Y-115231697D01*
X125208730Y-114525666D01*
X127671576Y-113438219D01*
X129938091Y-111996724D01*
X131972132Y-110228550D01*
X133737559Y-108161067D01*
X135198233Y-105821641D01*
X135318029Y-105589797D01*
X135694289Y-104710339D01*
X136089933Y-103558158D01*
X136461542Y-102282853D01*
X136765695Y-101034025D01*
X136958974Y-99961273D01*
X136964829Y-99915884D01*
X137119198Y-98690740D01*
X136385948Y-98690740D01*
X135652698Y-98690740D01*
X135283058Y-100629636D01*
X134612651Y-103035878D01*
X133568052Y-105258122D01*
X132175609Y-107268853D01*
X130461672Y-109040557D01*
X128452591Y-110545719D01*
X126174715Y-111756824D01*
X123819278Y-112600488D01*
X122199226Y-112929149D01*
X120338393Y-113095796D01*
X118394296Y-113100430D01*
X116524453Y-112943049D01*
X114886382Y-112623655D01*
X114802961Y-112600488D01*
X112354562Y-111705734D01*
X110123053Y-110486184D01*
X108139870Y-108976395D01*
X106436455Y-107210922D01*
X105044244Y-105224320D01*
X103994678Y-103051145D01*
X103319195Y-100725954D01*
X103167349Y-99811328D01*
X103067986Y-99161528D01*
X102936559Y-98829044D01*
X102687959Y-98707557D01*
X102270346Y-98690740D01*
X101521667Y-98690740D01*
X100480972Y-98690740D01*
X100479201Y-98637378D01*
X100476373Y-97623513D01*
X102275124Y-97623513D01*
X104073875Y-97623513D01*
X104211548Y-99092372D01*
G37*
D12*
%TO.C,J1*%
X97222000Y-84776000D02*
X98552000Y-84776000D01*
X97222000Y-86106000D02*
X97222000Y-84776000D01*
X97222000Y-87376000D02*
X97222000Y-95056000D01*
X97222000Y-87376000D02*
X99882000Y-87376000D01*
X97222000Y-95056000D02*
X99882000Y-95056000D01*
X99882000Y-87376000D02*
X99882000Y-95056000D01*
%TO.C,R4*%
X98957000Y-71374000D02*
X99647000Y-71374000D01*
X99647000Y-69654000D02*
X99647000Y-73094000D01*
X99647000Y-73094000D02*
X108887000Y-73094000D01*
X108887000Y-69654000D02*
X99647000Y-69654000D01*
X108887000Y-73094000D02*
X108887000Y-69654000D01*
X109577000Y-71374000D02*
X108887000Y-71374000D01*
%TO.C,D2*%
X132806000Y-75091000D02*
X132806000Y-75247000D01*
X132806000Y-77407000D02*
X132806000Y-77563000D01*
X132806000Y-75091484D02*
G75*
G02*
X136037397Y-75246939I1560000J-1235516D01*
G01*
X133325039Y-75247000D02*
G75*
G02*
X135406910Y-75246951I1040961J-1080000D01*
G01*
X135406910Y-77407049D02*
G75*
G02*
X133325039Y-77407000I-1040910J1080049D01*
G01*
X136037397Y-77407061D02*
G75*
G02*
X132806000Y-77562516I-1671397J1080061D01*
G01*
%TO.C,J3*%
X139894000Y-103079000D02*
X141224000Y-103079000D01*
X139894000Y-104409000D02*
X139894000Y-103079000D01*
X139894000Y-105679000D02*
X139894000Y-110819000D01*
X139894000Y-105679000D02*
X142554000Y-105679000D01*
X139894000Y-110819000D02*
X142554000Y-110819000D01*
X142554000Y-105679000D02*
X142554000Y-110819000D01*
%TO.C,D1*%
X102453000Y-75218000D02*
X102453000Y-75374000D01*
X102453000Y-77534000D02*
X102453000Y-77690000D01*
X102453000Y-75218484D02*
G75*
G02*
X105684397Y-75373939I1560000J-1235516D01*
G01*
X102972039Y-75374000D02*
G75*
G02*
X105053910Y-75373951I1040961J-1080000D01*
G01*
X105053910Y-77534049D02*
G75*
G02*
X102972039Y-77534000I-1040910J1080049D01*
G01*
X105684397Y-77534061D02*
G75*
G02*
X102453000Y-77689516I-1671397J1080061D01*
G01*
%TO.C,J2*%
X138370000Y-84786000D02*
X139700000Y-84786000D01*
X138370000Y-86116000D02*
X138370000Y-84786000D01*
X138370000Y-87386000D02*
X138370000Y-95066000D01*
X138370000Y-87386000D02*
X141030000Y-87386000D01*
X138370000Y-95066000D02*
X141030000Y-95066000D01*
X141030000Y-87386000D02*
X141030000Y-95066000D01*
%TO.C,R3*%
X128548000Y-71374000D02*
X129238000Y-71374000D01*
X129238000Y-69654000D02*
X129238000Y-73094000D01*
X129238000Y-73094000D02*
X138478000Y-73094000D01*
X138478000Y-69654000D02*
X129238000Y-69654000D01*
X138478000Y-73094000D02*
X138478000Y-69654000D01*
X139168000Y-71374000D02*
X138478000Y-71374000D01*
%TD*%
M02*
