%TF.GenerationSoftware,KiCad,Pcbnew,8.0.8*%
%TF.CreationDate,2025-02-18T10:54:12-06:00*%
%TF.ProjectId,ATTinyFlashLEDs_noSwitch,41545469-6e79-4466-9c61-73684c454473,rev?*%
%TF.SameCoordinates,Original*%
%TF.FileFunction,Copper,L2,Bot*%
%TF.FilePolarity,Positive*%
%FSLAX46Y46*%
G04 Gerber Fmt 4.6, Leading zero omitted, Abs format (unit mm)*
G04 Created by KiCad (PCBNEW 8.0.8) date 2025-02-18 10:54:12*
%MOMM*%
%LPD*%
G01*
G04 APERTURE LIST*
G04 Aperture macros list*
%AMRoundRect*
0 Rectangle with rounded corners*
0 $1 Rounding radius*
0 $2 $3 $4 $5 $6 $7 $8 $9 X,Y pos of 4 corners*
0 Add a 4 corners polygon primitive as box body*
4,1,4,$2,$3,$4,$5,$6,$7,$8,$9,$2,$3,0*
0 Add four circle primitives for the rounded corners*
1,1,$1+$1,$2,$3*
1,1,$1+$1,$4,$5*
1,1,$1+$1,$6,$7*
1,1,$1+$1,$8,$9*
0 Add four rect primitives between the rounded corners*
20,1,$1+$1,$2,$3,$4,$5,0*
20,1,$1+$1,$4,$5,$6,$7,0*
20,1,$1+$1,$6,$7,$8,$9,0*
20,1,$1+$1,$8,$9,$2,$3,0*%
G04 Aperture macros list end*
%TA.AperFunction,ComponentPad*%
%ADD10R,1.600000X1.600000*%
%TD*%
%TA.AperFunction,ComponentPad*%
%ADD11O,1.600000X1.600000*%
%TD*%
%TA.AperFunction,ComponentPad*%
%ADD12R,1.700000X1.700000*%
%TD*%
%TA.AperFunction,ComponentPad*%
%ADD13O,1.700000X1.700000*%
%TD*%
%TA.AperFunction,ComponentPad*%
%ADD14C,1.600000*%
%TD*%
%TA.AperFunction,ComponentPad*%
%ADD15R,1.800000X1.800000*%
%TD*%
%TA.AperFunction,ComponentPad*%
%ADD16C,1.800000*%
%TD*%
%TA.AperFunction,SMDPad,CuDef*%
%ADD17R,1.270000X5.080000*%
%TD*%
%TA.AperFunction,SMDPad,CuDef*%
%ADD18C,17.800000*%
%TD*%
%TA.AperFunction,SMDPad,CuDef*%
%ADD19RoundRect,0.237500X0.250000X0.237500X-0.250000X0.237500X-0.250000X-0.237500X0.250000X-0.237500X0*%
%TD*%
%TA.AperFunction,SMDPad,CuDef*%
%ADD20RoundRect,0.237500X-0.250000X-0.237500X0.250000X-0.237500X0.250000X0.237500X-0.250000X0.237500X0*%
%TD*%
%TA.AperFunction,ViaPad*%
%ADD21C,0.600000*%
%TD*%
%TA.AperFunction,Conductor*%
%ADD22C,0.254000*%
%TD*%
%TA.AperFunction,Conductor*%
%ADD23C,1.270000*%
%TD*%
G04 APERTURE END LIST*
D10*
%TO.P,U1,1,~{RESET}/PB5*%
%TO.N,Net-(J1-Pin_1)*%
X115707000Y-86116000D03*
D11*
%TO.P,U1,2,XTAL1/PB3*%
%TO.N,Net-(J1-Pin_2)*%
X115707000Y-88656000D03*
%TO.P,U1,3,XTAL2/PB4*%
%TO.N,Net-(J1-Pin_3)*%
X115707000Y-91196000D03*
%TO.P,U1,4,GND*%
%TO.N,GND*%
X115707000Y-93736000D03*
%TO.P,U1,5,AREF/PB0*%
%TO.N,Net-(J2-Pin_4)*%
X123327000Y-93736000D03*
%TO.P,U1,6,PB1*%
%TO.N,Net-(D1-A)*%
X123327000Y-91196000D03*
%TO.P,U1,7,PB2*%
%TO.N,Net-(D2-A)*%
X123327000Y-88656000D03*
%TO.P,U1,8,VCC*%
%TO.N,Net-(J2-Pin_1)*%
X123327000Y-86116000D03*
%TD*%
D12*
%TO.P,J1,1,Pin_1*%
%TO.N,Net-(J1-Pin_1)*%
X98552000Y-86106000D03*
D13*
%TO.P,J1,2,Pin_2*%
%TO.N,Net-(J1-Pin_2)*%
X98552000Y-88646000D03*
%TO.P,J1,3,Pin_3*%
%TO.N,Net-(J1-Pin_3)*%
X98552000Y-91186000D03*
%TO.P,J1,4,Pin_4*%
%TO.N,GND*%
X98552000Y-93726000D03*
%TD*%
D14*
%TO.P,R4,1*%
%TO.N,Net-(D1-K)*%
X97917000Y-71374000D03*
D11*
%TO.P,R4,2*%
%TO.N,GND*%
X110617000Y-71374000D03*
%TD*%
D15*
%TO.P,D2,1,K*%
%TO.N,Net-(D2-K)*%
X133096000Y-76327000D03*
D16*
%TO.P,D2,2,A*%
%TO.N,Net-(D2-A)*%
X135636000Y-76327000D03*
%TD*%
D12*
%TO.P,J3,1,Pin_1*%
%TO.N,Net-(J2-Pin_1)*%
X141224000Y-104409000D03*
D13*
%TO.P,J3,2,Pin_2*%
%TO.N,+3V0*%
X141224000Y-106949000D03*
%TO.P,J3,3,Pin_3*%
%TO.N,unconnected-(J3-Pin_3-Pad3)*%
X141224000Y-109489000D03*
%TD*%
D15*
%TO.P,D1,1,K*%
%TO.N,Net-(D1-K)*%
X102743000Y-76454000D03*
D16*
%TO.P,D1,2,A*%
%TO.N,Net-(D1-A)*%
X105283000Y-76454000D03*
%TD*%
D12*
%TO.P,J2,1,Pin_1*%
%TO.N,Net-(J2-Pin_1)*%
X139700000Y-86116000D03*
D13*
%TO.P,J2,2,Pin_2*%
%TO.N,Net-(D2-A)*%
X139700000Y-88656000D03*
%TO.P,J2,3,Pin_3*%
%TO.N,Net-(D1-A)*%
X139700000Y-91196000D03*
%TO.P,J2,4,Pin_4*%
%TO.N,Net-(J2-Pin_4)*%
X139700000Y-93736000D03*
%TD*%
D14*
%TO.P,R3,1*%
%TO.N,Net-(D2-K)*%
X140208000Y-71374000D03*
D11*
%TO.P,R3,2*%
%TO.N,GND*%
X127508000Y-71374000D03*
%TD*%
D17*
%TO.P,BT1,1,+*%
%TO.N,+3V0*%
X130365000Y-107061000D03*
X108395000Y-107061000D03*
D18*
%TO.P,BT1,2,-*%
%TO.N,GND*%
X119380000Y-107061000D03*
%TD*%
D19*
%TO.P,R2,1*%
%TO.N,Net-(D2-K)*%
X132738500Y-80518000D03*
%TO.P,R2,2*%
%TO.N,GND*%
X130913500Y-80518000D03*
%TD*%
D20*
%TO.P,R1,1*%
%TO.N,Net-(D1-K)*%
X103227500Y-80391000D03*
%TO.P,R1,2*%
%TO.N,GND*%
X105052500Y-80391000D03*
%TD*%
D21*
%TO.N,GND*%
X97536000Y-76708000D03*
X100076000Y-79248000D03*
X100076000Y-69088000D03*
X107696000Y-69088000D03*
X107696000Y-74168000D03*
X105156000Y-71628000D03*
X133096000Y-71628000D03*
X140716000Y-76708000D03*
X138176000Y-81788000D03*
X128016000Y-76708000D03*
X128016000Y-81788000D03*
X128016000Y-86868000D03*
X130556000Y-84328000D03*
X97536000Y-102108000D03*
X100076000Y-107188000D03*
X97536000Y-109728000D03*
X97536000Y-114808000D03*
X100076000Y-117348000D03*
X100076000Y-112268000D03*
X102616000Y-114808000D03*
X105156000Y-112268000D03*
X105156000Y-117348000D03*
X133096000Y-117348000D03*
X143256000Y-117348000D03*
X138176000Y-117348000D03*
X140716000Y-114808000D03*
X138176000Y-112268000D03*
X135636000Y-114808000D03*
X133096000Y-112268000D03*
X135636000Y-109728000D03*
X133096000Y-99568000D03*
X130556000Y-97028000D03*
X125476000Y-97028000D03*
X107696000Y-99568000D03*
X112776000Y-94488000D03*
X110236000Y-97028000D03*
X107696000Y-94488000D03*
X105156000Y-97028000D03*
X102616000Y-94488000D03*
X110236000Y-84328000D03*
X110236000Y-81788000D03*
X107696000Y-81788000D03*
X107696000Y-79248000D03*
X120396000Y-81788000D03*
X115316000Y-76708000D03*
X117856000Y-79248000D03*
X120396000Y-76708000D03*
X120396000Y-71628000D03*
X117856000Y-74168000D03*
X115316000Y-71628000D03*
X112776000Y-74168000D03*
X120396000Y-69088000D03*
X117856000Y-69088000D03*
X115316000Y-69088000D03*
X112776000Y-69088000D03*
%TD*%
D22*
%TO.N,Net-(D1-K)*%
X97917000Y-71374000D02*
X102743000Y-76200000D01*
X102743000Y-79906500D02*
X103227500Y-80391000D01*
X102743000Y-76454000D02*
X102743000Y-79906500D01*
X102743000Y-76200000D02*
X102743000Y-76454000D01*
%TO.N,Net-(D2-K)*%
X138049000Y-71374000D02*
X133096000Y-76327000D01*
X133096000Y-76327000D02*
X133096000Y-80160500D01*
X140208000Y-71374000D02*
X138049000Y-71374000D01*
X133096000Y-80160500D02*
X132738500Y-80518000D01*
D23*
%TO.N,+3V0*%
X130365000Y-107061000D02*
X130365000Y-117538000D01*
X130365000Y-107061000D02*
X141112000Y-107061000D01*
X108712000Y-117602000D02*
X108395000Y-117285000D01*
X141112000Y-107061000D02*
X141224000Y-106949000D01*
X130429000Y-117602000D02*
X108712000Y-117602000D01*
X108395000Y-117285000D02*
X108395000Y-107061000D01*
X130365000Y-117538000D02*
X130429000Y-117602000D01*
%TD*%
%TA.AperFunction,Conductor*%
%TO.N,GND*%
G36*
X144476539Y-67830185D02*
G01*
X144522294Y-67882989D01*
X144533500Y-67934500D01*
X144533500Y-119263500D01*
X144513815Y-119330539D01*
X144461011Y-119376294D01*
X144409500Y-119387500D01*
X95620500Y-119387500D01*
X95553461Y-119367815D01*
X95507706Y-119315011D01*
X95496500Y-119263500D01*
X95496500Y-104473135D01*
X107259500Y-104473135D01*
X107259500Y-117374370D01*
X107287458Y-117550894D01*
X107312306Y-117627366D01*
X107342692Y-117720885D01*
X107417596Y-117867891D01*
X107423833Y-117880132D01*
X107491946Y-117973881D01*
X107528889Y-118024728D01*
X107845889Y-118341728D01*
X107972272Y-118468111D01*
X108068669Y-118538148D01*
X108116869Y-118573168D01*
X108199708Y-118615375D01*
X108276119Y-118654309D01*
X108317802Y-118667851D01*
X108317804Y-118667853D01*
X108317805Y-118667853D01*
X108349880Y-118678275D01*
X108446103Y-118709541D01*
X108521759Y-118721523D01*
X108622630Y-118737500D01*
X108622634Y-118737500D01*
X130518372Y-118737500D01*
X130598607Y-118724791D01*
X130694897Y-118709541D01*
X130864881Y-118654309D01*
X131024132Y-118573167D01*
X131168729Y-118468111D01*
X131295111Y-118341729D01*
X131400167Y-118197132D01*
X131481309Y-118037881D01*
X131536541Y-117867897D01*
X131559826Y-117720881D01*
X131564500Y-117691372D01*
X131564500Y-117512629D01*
X131536541Y-117336105D01*
X131536541Y-117336103D01*
X131506569Y-117243859D01*
X131500500Y-117205541D01*
X131500500Y-108320500D01*
X131520185Y-108253461D01*
X131572989Y-108207706D01*
X131624500Y-108196500D01*
X140322078Y-108196500D01*
X140389117Y-108216185D01*
X140434872Y-108268989D01*
X140444816Y-108338147D01*
X140415791Y-108401703D01*
X140393201Y-108422075D01*
X140352596Y-108450506D01*
X140185505Y-108617597D01*
X140049965Y-108811169D01*
X140049964Y-108811171D01*
X139950098Y-109025335D01*
X139950094Y-109025344D01*
X139888938Y-109253586D01*
X139888936Y-109253596D01*
X139868341Y-109488999D01*
X139868341Y-109489000D01*
X139888936Y-109724403D01*
X139888938Y-109724413D01*
X139950094Y-109952655D01*
X139950096Y-109952659D01*
X139950097Y-109952663D01*
X140011408Y-110084144D01*
X140049965Y-110166830D01*
X140049967Y-110166834D01*
X140158281Y-110321521D01*
X140185505Y-110360401D01*
X140352599Y-110527495D01*
X140449384Y-110595265D01*
X140546165Y-110663032D01*
X140546167Y-110663033D01*
X140546170Y-110663035D01*
X140760337Y-110762903D01*
X140988592Y-110824063D01*
X141176918Y-110840539D01*
X141223999Y-110844659D01*
X141224000Y-110844659D01*
X141224001Y-110844659D01*
X141263234Y-110841226D01*
X141459408Y-110824063D01*
X141687663Y-110762903D01*
X141901830Y-110663035D01*
X142095401Y-110527495D01*
X142262495Y-110360401D01*
X142398035Y-110166830D01*
X142497903Y-109952663D01*
X142559063Y-109724408D01*
X142579659Y-109489000D01*
X142559063Y-109253592D01*
X142497903Y-109025337D01*
X142398035Y-108811171D01*
X142262495Y-108617599D01*
X142262494Y-108617597D01*
X142095402Y-108450506D01*
X142095396Y-108450501D01*
X141909842Y-108320575D01*
X141866217Y-108265998D01*
X141859023Y-108196500D01*
X141890546Y-108134145D01*
X141909842Y-108117425D01*
X141932026Y-108101891D01*
X142095401Y-107987495D01*
X142262495Y-107820401D01*
X142398035Y-107626830D01*
X142497903Y-107412663D01*
X142559063Y-107184408D01*
X142579659Y-106949000D01*
X142559063Y-106713592D01*
X142497903Y-106485337D01*
X142398035Y-106271171D01*
X142262495Y-106077599D01*
X142140567Y-105955671D01*
X142107084Y-105894351D01*
X142112068Y-105824659D01*
X142153939Y-105768725D01*
X142184915Y-105751810D01*
X142316331Y-105702796D01*
X142431546Y-105616546D01*
X142517796Y-105501331D01*
X142568091Y-105366483D01*
X142574500Y-105306873D01*
X142574499Y-103511128D01*
X142568091Y-103451517D01*
X142517796Y-103316669D01*
X142517795Y-103316668D01*
X142517793Y-103316664D01*
X142431547Y-103201455D01*
X142431544Y-103201452D01*
X142316335Y-103115206D01*
X142316328Y-103115202D01*
X142181482Y-103064908D01*
X142181483Y-103064908D01*
X142121883Y-103058501D01*
X142121881Y-103058500D01*
X142121873Y-103058500D01*
X142121864Y-103058500D01*
X140326129Y-103058500D01*
X140326123Y-103058501D01*
X140266516Y-103064908D01*
X140131671Y-103115202D01*
X140131664Y-103115206D01*
X140016455Y-103201452D01*
X140016452Y-103201455D01*
X139930206Y-103316664D01*
X139930202Y-103316671D01*
X139879908Y-103451517D01*
X139873501Y-103511116D01*
X139873501Y-103511123D01*
X139873500Y-103511135D01*
X139873500Y-105306870D01*
X139873501Y-105306876D01*
X139879908Y-105366483D01*
X139930202Y-105501328D01*
X139930206Y-105501335D01*
X140016452Y-105616544D01*
X140016455Y-105616547D01*
X140130917Y-105702234D01*
X140172788Y-105758168D01*
X140177772Y-105827859D01*
X140144286Y-105889182D01*
X140082963Y-105922666D01*
X140056606Y-105925500D01*
X131624499Y-105925500D01*
X131557460Y-105905815D01*
X131511705Y-105853011D01*
X131500499Y-105801500D01*
X131500499Y-104473129D01*
X131500498Y-104473123D01*
X131500497Y-104473116D01*
X131494091Y-104413517D01*
X131443796Y-104278669D01*
X131443795Y-104278668D01*
X131443793Y-104278664D01*
X131357547Y-104163455D01*
X131357544Y-104163452D01*
X131242335Y-104077206D01*
X131242328Y-104077202D01*
X131107482Y-104026908D01*
X131107483Y-104026908D01*
X131047883Y-104020501D01*
X131047881Y-104020500D01*
X131047873Y-104020500D01*
X131047864Y-104020500D01*
X129682129Y-104020500D01*
X129682123Y-104020501D01*
X129622516Y-104026908D01*
X129487671Y-104077202D01*
X129487664Y-104077206D01*
X129372455Y-104163452D01*
X129372452Y-104163455D01*
X129286206Y-104278664D01*
X129286202Y-104278671D01*
X129235908Y-104413517D01*
X129229501Y-104473116D01*
X129229501Y-104473123D01*
X129229500Y-104473135D01*
X129229500Y-116342500D01*
X129209815Y-116409539D01*
X129157011Y-116455294D01*
X129105500Y-116466500D01*
X121515675Y-116466500D01*
X121448636Y-116446815D01*
X121402881Y-116394011D01*
X121392937Y-116324853D01*
X121421962Y-116261297D01*
X121480740Y-116223523D01*
X121487518Y-116221739D01*
X121814201Y-116145567D01*
X121814209Y-116145564D01*
X122403144Y-115966913D01*
X122403159Y-115966908D01*
X122979132Y-115750127D01*
X122979155Y-115750118D01*
X123539732Y-115496123D01*
X123539759Y-115496110D01*
X124082504Y-115206008D01*
X124082526Y-115205995D01*
X124605145Y-114881010D01*
X124605155Y-114881004D01*
X125105422Y-114522517D01*
X125581161Y-114132087D01*
X125581181Y-114132070D01*
X125847800Y-113882354D01*
X125847801Y-113882354D01*
X119380000Y-107414553D01*
X112912198Y-113882354D01*
X113178818Y-114132070D01*
X113178838Y-114132087D01*
X113654577Y-114522517D01*
X113654576Y-114522517D01*
X114154844Y-114881004D01*
X114154854Y-114881010D01*
X114677473Y-115205995D01*
X114677495Y-115206008D01*
X115220240Y-115496110D01*
X115220267Y-115496123D01*
X115780844Y-115750118D01*
X115780867Y-115750127D01*
X116356840Y-115966908D01*
X116356855Y-115966913D01*
X116945790Y-116145564D01*
X116945798Y-116145567D01*
X117272482Y-116221739D01*
X117333301Y-116256133D01*
X117365870Y-116317947D01*
X117359849Y-116387557D01*
X117317151Y-116442861D01*
X117251330Y-116466302D01*
X117244325Y-116466500D01*
X109654500Y-116466500D01*
X109587461Y-116446815D01*
X109541706Y-116394011D01*
X109530500Y-116342500D01*
X109530500Y-107061000D01*
X109974964Y-107061000D01*
X109995101Y-107676130D01*
X110055424Y-108288598D01*
X110155678Y-108895828D01*
X110295432Y-109495201D01*
X110295435Y-109495209D01*
X110474086Y-110084144D01*
X110474091Y-110084159D01*
X110690872Y-110660132D01*
X110690881Y-110660155D01*
X110944876Y-111220732D01*
X110944889Y-111220759D01*
X111234991Y-111763504D01*
X111235004Y-111763526D01*
X111559989Y-112286145D01*
X111559995Y-112286155D01*
X111918482Y-112786422D01*
X112308912Y-113262161D01*
X112308929Y-113262181D01*
X112558645Y-113528801D01*
X119026446Y-107061000D01*
X119026446Y-107060999D01*
X119733553Y-107060999D01*
X119733553Y-107061000D01*
X126201353Y-113528801D01*
X126201354Y-113528800D01*
X126451070Y-113262181D01*
X126451087Y-113262161D01*
X126841517Y-112786422D01*
X127200004Y-112286155D01*
X127200010Y-112286145D01*
X127524995Y-111763526D01*
X127525008Y-111763504D01*
X127815110Y-111220759D01*
X127815123Y-111220732D01*
X128069118Y-110660155D01*
X128069127Y-110660132D01*
X128285908Y-110084159D01*
X128285913Y-110084144D01*
X128464564Y-109495209D01*
X128464567Y-109495201D01*
X128604321Y-108895828D01*
X128704575Y-108288598D01*
X128764898Y-107676130D01*
X128785035Y-107061000D01*
X128764898Y-106445869D01*
X128704575Y-105833401D01*
X128604321Y-105226171D01*
X128464567Y-104626798D01*
X128464564Y-104626790D01*
X128285913Y-104037855D01*
X128285908Y-104037840D01*
X128069127Y-103461867D01*
X128069118Y-103461844D01*
X127815123Y-102901267D01*
X127815110Y-102901240D01*
X127525008Y-102358495D01*
X127524995Y-102358473D01*
X127200010Y-101835854D01*
X127200004Y-101835844D01*
X126841517Y-101335577D01*
X126451087Y-100859838D01*
X126451070Y-100859818D01*
X126201354Y-100593198D01*
X119733553Y-107060999D01*
X119026446Y-107060999D01*
X112558645Y-100593198D01*
X112308914Y-100859835D01*
X112308912Y-100859838D01*
X111918482Y-101335577D01*
X111559995Y-101835844D01*
X111559989Y-101835854D01*
X111235004Y-102358473D01*
X111234991Y-102358495D01*
X110944889Y-102901240D01*
X110944876Y-102901267D01*
X110690881Y-103461844D01*
X110690872Y-103461867D01*
X110474091Y-104037840D01*
X110474086Y-104037855D01*
X110295435Y-104626790D01*
X110295432Y-104626798D01*
X110155678Y-105226171D01*
X110055424Y-105833401D01*
X109995101Y-106445869D01*
X109974964Y-107061000D01*
X109530500Y-107061000D01*
X109530500Y-106964039D01*
X109530499Y-106964021D01*
X109530499Y-104473129D01*
X109530498Y-104473123D01*
X109530497Y-104473116D01*
X109524091Y-104413517D01*
X109473796Y-104278669D01*
X109473795Y-104278668D01*
X109473793Y-104278664D01*
X109387547Y-104163455D01*
X109387544Y-104163452D01*
X109272335Y-104077206D01*
X109272328Y-104077202D01*
X109137482Y-104026908D01*
X109137483Y-104026908D01*
X109077883Y-104020501D01*
X109077881Y-104020500D01*
X109077873Y-104020500D01*
X109077864Y-104020500D01*
X107712129Y-104020500D01*
X107712123Y-104020501D01*
X107652516Y-104026908D01*
X107517671Y-104077202D01*
X107517664Y-104077206D01*
X107402455Y-104163452D01*
X107402452Y-104163455D01*
X107316206Y-104278664D01*
X107316202Y-104278671D01*
X107265908Y-104413517D01*
X107259501Y-104473116D01*
X107259501Y-104473123D01*
X107259500Y-104473135D01*
X95496500Y-104473135D01*
X95496500Y-100239645D01*
X112912198Y-100239645D01*
X119379999Y-106707446D01*
X125847801Y-100239645D01*
X125581181Y-99989929D01*
X125581161Y-99989912D01*
X125105422Y-99599482D01*
X125105423Y-99599482D01*
X124605155Y-99240995D01*
X124605145Y-99240989D01*
X124082526Y-98916004D01*
X124082504Y-98915991D01*
X123539759Y-98625889D01*
X123539732Y-98625876D01*
X122979155Y-98371881D01*
X122979132Y-98371872D01*
X122403159Y-98155091D01*
X122403144Y-98155086D01*
X121814209Y-97976435D01*
X121814201Y-97976432D01*
X121214828Y-97836678D01*
X120607598Y-97736424D01*
X119995130Y-97676101D01*
X119380000Y-97655964D01*
X118764869Y-97676101D01*
X118152401Y-97736424D01*
X117545171Y-97836678D01*
X116945798Y-97976432D01*
X116945790Y-97976435D01*
X116356855Y-98155086D01*
X116356840Y-98155091D01*
X115780867Y-98371872D01*
X115780844Y-98371881D01*
X115220267Y-98625876D01*
X115220240Y-98625889D01*
X114677495Y-98915991D01*
X114677473Y-98916004D01*
X114154854Y-99240989D01*
X114154844Y-99240995D01*
X113654577Y-99599482D01*
X113178838Y-99989912D01*
X113178835Y-99989914D01*
X112912198Y-100239645D01*
X95496500Y-100239645D01*
X95496500Y-88645999D01*
X97196341Y-88645999D01*
X97196341Y-88646000D01*
X97216936Y-88881403D01*
X97216938Y-88881413D01*
X97278094Y-89109655D01*
X97278096Y-89109659D01*
X97278097Y-89109663D01*
X97282761Y-89119664D01*
X97377965Y-89323830D01*
X97377967Y-89323834D01*
X97513501Y-89517395D01*
X97513506Y-89517402D01*
X97680597Y-89684493D01*
X97680603Y-89684498D01*
X97866158Y-89814425D01*
X97909783Y-89869002D01*
X97916977Y-89938500D01*
X97885454Y-90000855D01*
X97866158Y-90017575D01*
X97680597Y-90147505D01*
X97513505Y-90314597D01*
X97377965Y-90508169D01*
X97377964Y-90508171D01*
X97278098Y-90722335D01*
X97278094Y-90722344D01*
X97216938Y-90950586D01*
X97216936Y-90950596D01*
X97196341Y-91185999D01*
X97196341Y-91186000D01*
X97216936Y-91421403D01*
X97216938Y-91421413D01*
X97278094Y-91649655D01*
X97278096Y-91649659D01*
X97278097Y-91649663D01*
X97282761Y-91659664D01*
X97377965Y-91863830D01*
X97377967Y-91863834D01*
X97513501Y-92057395D01*
X97513506Y-92057402D01*
X97680597Y-92224493D01*
X97680603Y-92224498D01*
X97694880Y-92234495D01*
X97865398Y-92353893D01*
X97866594Y-92354730D01*
X97910219Y-92409307D01*
X97917413Y-92478805D01*
X97885890Y-92541160D01*
X97866595Y-92557880D01*
X97680922Y-92687890D01*
X97680920Y-92687891D01*
X97513891Y-92854920D01*
X97513886Y-92854926D01*
X97378400Y-93048420D01*
X97378399Y-93048422D01*
X97278570Y-93262507D01*
X97278567Y-93262513D01*
X97221364Y-93475999D01*
X97221364Y-93476000D01*
X98118988Y-93476000D01*
X98086075Y-93533007D01*
X98052000Y-93660174D01*
X98052000Y-93791826D01*
X98086075Y-93918993D01*
X98118988Y-93976000D01*
X97221364Y-93976000D01*
X97278567Y-94189486D01*
X97278570Y-94189492D01*
X97378399Y-94403578D01*
X97513894Y-94597082D01*
X97680917Y-94764105D01*
X97874421Y-94899600D01*
X98088507Y-94999429D01*
X98088516Y-94999433D01*
X98302000Y-95056634D01*
X98302000Y-94159012D01*
X98359007Y-94191925D01*
X98486174Y-94226000D01*
X98617826Y-94226000D01*
X98744993Y-94191925D01*
X98802000Y-94159012D01*
X98802000Y-95056633D01*
X99015483Y-94999433D01*
X99015492Y-94999429D01*
X99229578Y-94899600D01*
X99423082Y-94764105D01*
X99590105Y-94597082D01*
X99725600Y-94403578D01*
X99825429Y-94189492D01*
X99825432Y-94189486D01*
X99882636Y-93976000D01*
X98985012Y-93976000D01*
X99017925Y-93918993D01*
X99052000Y-93791826D01*
X99052000Y-93660174D01*
X99017925Y-93533007D01*
X98985012Y-93476000D01*
X99882636Y-93476000D01*
X99882635Y-93475999D01*
X99825432Y-93262513D01*
X99825429Y-93262507D01*
X99725600Y-93048422D01*
X99725599Y-93048420D01*
X99590113Y-92854926D01*
X99590108Y-92854920D01*
X99423078Y-92687890D01*
X99237405Y-92557879D01*
X99193780Y-92503302D01*
X99186588Y-92433804D01*
X99218110Y-92371449D01*
X99237406Y-92354730D01*
X99423401Y-92224495D01*
X99590495Y-92057401D01*
X99726035Y-91863830D01*
X99825903Y-91649663D01*
X99887063Y-91421408D01*
X99907659Y-91186000D01*
X99887063Y-90950592D01*
X99828584Y-90732344D01*
X99825905Y-90722344D01*
X99825904Y-90722343D01*
X99825903Y-90722337D01*
X99726035Y-90508171D01*
X99590495Y-90314599D01*
X99590494Y-90314597D01*
X99423402Y-90147506D01*
X99423396Y-90147501D01*
X99237842Y-90017575D01*
X99194217Y-89962998D01*
X99187023Y-89893500D01*
X99218546Y-89831145D01*
X99237842Y-89814425D01*
X99409115Y-89694498D01*
X99423401Y-89684495D01*
X99590495Y-89517401D01*
X99726035Y-89323830D01*
X99825903Y-89109663D01*
X99887063Y-88881408D01*
X99906784Y-88655998D01*
X114401532Y-88655998D01*
X114401532Y-88656001D01*
X114421364Y-88882686D01*
X114421366Y-88882697D01*
X114480258Y-89102488D01*
X114480261Y-89102497D01*
X114576431Y-89308732D01*
X114576432Y-89308734D01*
X114706954Y-89495141D01*
X114867858Y-89656045D01*
X114867861Y-89656047D01*
X115054266Y-89786568D01*
X115112275Y-89813618D01*
X115164714Y-89859791D01*
X115183866Y-89926984D01*
X115163650Y-89993865D01*
X115112275Y-90038382D01*
X115054267Y-90065431D01*
X115054265Y-90065432D01*
X114867858Y-90195954D01*
X114706954Y-90356858D01*
X114576432Y-90543265D01*
X114576431Y-90543267D01*
X114480261Y-90749502D01*
X114480258Y-90749511D01*
X114421366Y-90969302D01*
X114421364Y-90969313D01*
X114401532Y-91195998D01*
X114401532Y-91196001D01*
X114421364Y-91422686D01*
X114421366Y-91422697D01*
X114480258Y-91642488D01*
X114480261Y-91642497D01*
X114576431Y-91848732D01*
X114576432Y-91848734D01*
X114706954Y-92035141D01*
X114867858Y-92196045D01*
X114867861Y-92196047D01*
X115054266Y-92326568D01*
X115112865Y-92353893D01*
X115165305Y-92400065D01*
X115184457Y-92467258D01*
X115164242Y-92534139D01*
X115112867Y-92578657D01*
X115054515Y-92605867D01*
X114868179Y-92736342D01*
X114707342Y-92897179D01*
X114576865Y-93083517D01*
X114480734Y-93289673D01*
X114480730Y-93289682D01*
X114428127Y-93485999D01*
X114428128Y-93486000D01*
X115391314Y-93486000D01*
X115386920Y-93490394D01*
X115334259Y-93581606D01*
X115307000Y-93683339D01*
X115307000Y-93788661D01*
X115334259Y-93890394D01*
X115386920Y-93981606D01*
X115391314Y-93986000D01*
X114428128Y-93986000D01*
X114480730Y-94182317D01*
X114480734Y-94182326D01*
X114576865Y-94388482D01*
X114707342Y-94574820D01*
X114868179Y-94735657D01*
X115054517Y-94866134D01*
X115260673Y-94962265D01*
X115260682Y-94962269D01*
X115456999Y-95014872D01*
X115457000Y-95014871D01*
X115457000Y-94051686D01*
X115461394Y-94056080D01*
X115552606Y-94108741D01*
X115654339Y-94136000D01*
X115759661Y-94136000D01*
X115861394Y-94108741D01*
X115952606Y-94056080D01*
X115957000Y-94051686D01*
X115957000Y-95014872D01*
X116153317Y-94962269D01*
X116153326Y-94962265D01*
X116359482Y-94866134D01*
X116545820Y-94735657D01*
X116706657Y-94574820D01*
X116837134Y-94388482D01*
X116933265Y-94182326D01*
X116933269Y-94182317D01*
X116985872Y-93986000D01*
X116022686Y-93986000D01*
X116027080Y-93981606D01*
X116079741Y-93890394D01*
X116107000Y-93788661D01*
X116107000Y-93683339D01*
X116079741Y-93581606D01*
X116027080Y-93490394D01*
X116022686Y-93486000D01*
X116985872Y-93486000D01*
X116985872Y-93485999D01*
X116933269Y-93289682D01*
X116933265Y-93289673D01*
X116837134Y-93083517D01*
X116706657Y-92897179D01*
X116545820Y-92736342D01*
X116359482Y-92605865D01*
X116301133Y-92578657D01*
X116248694Y-92532484D01*
X116229542Y-92465291D01*
X116249758Y-92398410D01*
X116301129Y-92353895D01*
X116359734Y-92326568D01*
X116546139Y-92196047D01*
X116707047Y-92035139D01*
X116837568Y-91848734D01*
X116933739Y-91642496D01*
X116992635Y-91422692D01*
X117012468Y-91196000D01*
X116992635Y-90969308D01*
X116933739Y-90749504D01*
X116837568Y-90543266D01*
X116707047Y-90356861D01*
X116707045Y-90356858D01*
X116546141Y-90195954D01*
X116359734Y-90065432D01*
X116359728Y-90065429D01*
X116301725Y-90038382D01*
X116249285Y-89992210D01*
X116230133Y-89925017D01*
X116250348Y-89858135D01*
X116301725Y-89813618D01*
X116359734Y-89786568D01*
X116546139Y-89656047D01*
X116707047Y-89495139D01*
X116837568Y-89308734D01*
X116933739Y-89102496D01*
X116992635Y-88882692D01*
X117012468Y-88656000D01*
X116992635Y-88429308D01*
X116933739Y-88209504D01*
X116837568Y-88003266D01*
X116707047Y-87816861D01*
X116707045Y-87816858D01*
X116546143Y-87655956D01*
X116541454Y-87652673D01*
X116521535Y-87638725D01*
X116477912Y-87584149D01*
X116470719Y-87514650D01*
X116502241Y-87452296D01*
X116562471Y-87416882D01*
X116579404Y-87413861D01*
X116614483Y-87410091D01*
X116749331Y-87359796D01*
X116864546Y-87273546D01*
X116950796Y-87158331D01*
X117001091Y-87023483D01*
X117007500Y-86963873D01*
X117007499Y-86115998D01*
X122021532Y-86115998D01*
X122021532Y-86116001D01*
X122041364Y-86342686D01*
X122041366Y-86342697D01*
X122100258Y-86562488D01*
X122100261Y-86562497D01*
X122196431Y-86768732D01*
X122196432Y-86768734D01*
X122326954Y-86955141D01*
X122487858Y-87116045D01*
X122487861Y-87116047D01*
X122674266Y-87246568D01*
X122732275Y-87273618D01*
X122784714Y-87319791D01*
X122803866Y-87386984D01*
X122783650Y-87453865D01*
X122732275Y-87498381D01*
X122715272Y-87506310D01*
X122674267Y-87525431D01*
X122674265Y-87525432D01*
X122487858Y-87655954D01*
X122326954Y-87816858D01*
X122196432Y-88003265D01*
X122196431Y-88003267D01*
X122100261Y-88209502D01*
X122100258Y-88209511D01*
X122041366Y-88429302D01*
X122041364Y-88429313D01*
X122021532Y-88655998D01*
X122021532Y-88656001D01*
X122041364Y-88882686D01*
X122041366Y-88882697D01*
X122100258Y-89102488D01*
X122100261Y-89102497D01*
X122196431Y-89308732D01*
X122196432Y-89308734D01*
X122326954Y-89495141D01*
X122487858Y-89656045D01*
X122487861Y-89656047D01*
X122674266Y-89786568D01*
X122732275Y-89813618D01*
X122784714Y-89859791D01*
X122803866Y-89926984D01*
X122783650Y-89993865D01*
X122732275Y-90038382D01*
X122674267Y-90065431D01*
X122674265Y-90065432D01*
X122487858Y-90195954D01*
X122326954Y-90356858D01*
X122196432Y-90543265D01*
X122196431Y-90543267D01*
X122100261Y-90749502D01*
X122100258Y-90749511D01*
X122041366Y-90969302D01*
X122041364Y-90969313D01*
X122021532Y-91195998D01*
X122021532Y-91196001D01*
X122041364Y-91422686D01*
X122041366Y-91422697D01*
X122100258Y-91642488D01*
X122100261Y-91642497D01*
X122196431Y-91848732D01*
X122196432Y-91848734D01*
X122326954Y-92035141D01*
X122487858Y-92196045D01*
X122487861Y-92196047D01*
X122674266Y-92326568D01*
X122732275Y-92353618D01*
X122784714Y-92399791D01*
X122803866Y-92466984D01*
X122783650Y-92533865D01*
X122732275Y-92578382D01*
X122674267Y-92605431D01*
X122674265Y-92605432D01*
X122487858Y-92735954D01*
X122326954Y-92896858D01*
X122196432Y-93083265D01*
X122196431Y-93083267D01*
X122100261Y-93289502D01*
X122100258Y-93289511D01*
X122041366Y-93509302D01*
X122041364Y-93509313D01*
X122021532Y-93735998D01*
X122021532Y-93736001D01*
X122041364Y-93962686D01*
X122041366Y-93962697D01*
X122100258Y-94182488D01*
X122100261Y-94182497D01*
X122196431Y-94388732D01*
X122196432Y-94388734D01*
X122326954Y-94575141D01*
X122487858Y-94736045D01*
X122487861Y-94736047D01*
X122674266Y-94866568D01*
X122880504Y-94962739D01*
X123100308Y-95021635D01*
X123262230Y-95035801D01*
X123326998Y-95041468D01*
X123327000Y-95041468D01*
X123327002Y-95041468D01*
X123383673Y-95036509D01*
X123553692Y-95021635D01*
X123773496Y-94962739D01*
X123979734Y-94866568D01*
X124166139Y-94736047D01*
X124327047Y-94575139D01*
X124457568Y-94388734D01*
X124553739Y-94182496D01*
X124612635Y-93962692D01*
X124632468Y-93736000D01*
X124612635Y-93509308D01*
X124566198Y-93336000D01*
X124553741Y-93289511D01*
X124553738Y-93289502D01*
X124457568Y-93083267D01*
X124457567Y-93083265D01*
X124327045Y-92896858D01*
X124166141Y-92735954D01*
X123979734Y-92605432D01*
X123979728Y-92605429D01*
X123921725Y-92578382D01*
X123869285Y-92532210D01*
X123850133Y-92465017D01*
X123870348Y-92398135D01*
X123921725Y-92353618D01*
X123979734Y-92326568D01*
X124166139Y-92196047D01*
X124327047Y-92035139D01*
X124457568Y-91848734D01*
X124553739Y-91642496D01*
X124612635Y-91422692D01*
X124632468Y-91196000D01*
X124612635Y-90969308D01*
X124553739Y-90749504D01*
X124457568Y-90543266D01*
X124327047Y-90356861D01*
X124327045Y-90356858D01*
X124166141Y-90195954D01*
X123979734Y-90065432D01*
X123979728Y-90065429D01*
X123921725Y-90038382D01*
X123869285Y-89992210D01*
X123850133Y-89925017D01*
X123870348Y-89858135D01*
X123921725Y-89813618D01*
X123979734Y-89786568D01*
X124166139Y-89656047D01*
X124327047Y-89495139D01*
X124457568Y-89308734D01*
X124553739Y-89102496D01*
X124612635Y-88882692D01*
X124632468Y-88656000D01*
X124632468Y-88655999D01*
X138344341Y-88655999D01*
X138344341Y-88656000D01*
X138364936Y-88891403D01*
X138364938Y-88891413D01*
X138426094Y-89119655D01*
X138426096Y-89119659D01*
X138426097Y-89119663D01*
X138514262Y-89308732D01*
X138525965Y-89333830D01*
X138525967Y-89333834D01*
X138661501Y-89527395D01*
X138661506Y-89527402D01*
X138828597Y-89694493D01*
X138828603Y-89694498D01*
X139014158Y-89824425D01*
X139057783Y-89879002D01*
X139064977Y-89948500D01*
X139033454Y-90010855D01*
X139014158Y-90027575D01*
X138828597Y-90157505D01*
X138661505Y-90324597D01*
X138525965Y-90518169D01*
X138525964Y-90518171D01*
X138426098Y-90732335D01*
X138426094Y-90732344D01*
X138364938Y-90960586D01*
X138364936Y-90960596D01*
X138344341Y-91195999D01*
X138344341Y-91196000D01*
X138364936Y-91431403D01*
X138364938Y-91431413D01*
X138426094Y-91659655D01*
X138426096Y-91659659D01*
X138426097Y-91659663D01*
X138514262Y-91848732D01*
X138525965Y-91873830D01*
X138525967Y-91873834D01*
X138661501Y-92067395D01*
X138661506Y-92067402D01*
X138828597Y-92234493D01*
X138828603Y-92234498D01*
X139014158Y-92364425D01*
X139057783Y-92419002D01*
X139064977Y-92488500D01*
X139033454Y-92550855D01*
X139014158Y-92567575D01*
X138828597Y-92697505D01*
X138661505Y-92864597D01*
X138525965Y-93058169D01*
X138525964Y-93058171D01*
X138426098Y-93272335D01*
X138426094Y-93272344D01*
X138364938Y-93500586D01*
X138364936Y-93500596D01*
X138344341Y-93735999D01*
X138344341Y-93736000D01*
X138364936Y-93971403D01*
X138364938Y-93971413D01*
X138426094Y-94199655D01*
X138426096Y-94199659D01*
X138426097Y-94199663D01*
X138514145Y-94388482D01*
X138525965Y-94413830D01*
X138525967Y-94413834D01*
X138634281Y-94568521D01*
X138661505Y-94607401D01*
X138828599Y-94774495D01*
X138925384Y-94842265D01*
X139022165Y-94910032D01*
X139022167Y-94910033D01*
X139022170Y-94910035D01*
X139236337Y-95009903D01*
X139236343Y-95009904D01*
X139236344Y-95009905D01*
X139280114Y-95021633D01*
X139464592Y-95071063D01*
X139652918Y-95087539D01*
X139699999Y-95091659D01*
X139700000Y-95091659D01*
X139700001Y-95091659D01*
X139739234Y-95088226D01*
X139935408Y-95071063D01*
X140163663Y-95009903D01*
X140377830Y-94910035D01*
X140571401Y-94774495D01*
X140738495Y-94607401D01*
X140874035Y-94413830D01*
X140973903Y-94199663D01*
X141035063Y-93971408D01*
X141055659Y-93736000D01*
X141035063Y-93500592D01*
X140973903Y-93272337D01*
X140874035Y-93058171D01*
X140867208Y-93048420D01*
X140738494Y-92864597D01*
X140571402Y-92697506D01*
X140571396Y-92697501D01*
X140385842Y-92567575D01*
X140342217Y-92512998D01*
X140335023Y-92443500D01*
X140366546Y-92381145D01*
X140385842Y-92364425D01*
X140439910Y-92326566D01*
X140571401Y-92234495D01*
X140738495Y-92067401D01*
X140874035Y-91873830D01*
X140973903Y-91659663D01*
X141035063Y-91431408D01*
X141055659Y-91196000D01*
X141035063Y-90960592D01*
X140973903Y-90732337D01*
X140874035Y-90518171D01*
X140738495Y-90324599D01*
X140738494Y-90324597D01*
X140571402Y-90157506D01*
X140571396Y-90157501D01*
X140385842Y-90027575D01*
X140342217Y-89972998D01*
X140335023Y-89903500D01*
X140366546Y-89841145D01*
X140385842Y-89824425D01*
X140439909Y-89786567D01*
X140571401Y-89694495D01*
X140738495Y-89527401D01*
X140874035Y-89333830D01*
X140973903Y-89119663D01*
X141035063Y-88891408D01*
X141055659Y-88656000D01*
X141035063Y-88420592D01*
X140973903Y-88192337D01*
X140874035Y-87978171D01*
X140738495Y-87784599D01*
X140616567Y-87662671D01*
X140583084Y-87601351D01*
X140588068Y-87531659D01*
X140629939Y-87475725D01*
X140660915Y-87458810D01*
X140792331Y-87409796D01*
X140907546Y-87323546D01*
X140993796Y-87208331D01*
X141044091Y-87073483D01*
X141050500Y-87013873D01*
X141050499Y-85218128D01*
X141044091Y-85158517D01*
X141040361Y-85148517D01*
X140993797Y-85023671D01*
X140993793Y-85023664D01*
X140907547Y-84908455D01*
X140907544Y-84908452D01*
X140792335Y-84822206D01*
X140792328Y-84822202D01*
X140657482Y-84771908D01*
X140657483Y-84771908D01*
X140597883Y-84765501D01*
X140597881Y-84765500D01*
X140597873Y-84765500D01*
X140597864Y-84765500D01*
X138802129Y-84765500D01*
X138802123Y-84765501D01*
X138742516Y-84771908D01*
X138607671Y-84822202D01*
X138607664Y-84822206D01*
X138492455Y-84908452D01*
X138492452Y-84908455D01*
X138406206Y-85023664D01*
X138406202Y-85023671D01*
X138355908Y-85158517D01*
X138350575Y-85208127D01*
X138349501Y-85218123D01*
X138349500Y-85218135D01*
X138349500Y-87013870D01*
X138349501Y-87013876D01*
X138355908Y-87073483D01*
X138406202Y-87208328D01*
X138406206Y-87208335D01*
X138492452Y-87323544D01*
X138492455Y-87323547D01*
X138607664Y-87409793D01*
X138607671Y-87409797D01*
X138739081Y-87458810D01*
X138795015Y-87500681D01*
X138819432Y-87566145D01*
X138804580Y-87634418D01*
X138783430Y-87662673D01*
X138661503Y-87784600D01*
X138525965Y-87978169D01*
X138525964Y-87978171D01*
X138426098Y-88192335D01*
X138426094Y-88192344D01*
X138364938Y-88420586D01*
X138364936Y-88420596D01*
X138344341Y-88655999D01*
X124632468Y-88655999D01*
X124612635Y-88429308D01*
X124553739Y-88209504D01*
X124457568Y-88003266D01*
X124327047Y-87816861D01*
X124327045Y-87816858D01*
X124166141Y-87655954D01*
X123979734Y-87525432D01*
X123979728Y-87525429D01*
X123952038Y-87512517D01*
X123921724Y-87498381D01*
X123869285Y-87452210D01*
X123850133Y-87385017D01*
X123870348Y-87318135D01*
X123921725Y-87273618D01*
X123979734Y-87246568D01*
X124166139Y-87116047D01*
X124327047Y-86955139D01*
X124457568Y-86768734D01*
X124553739Y-86562496D01*
X124612635Y-86342692D01*
X124632468Y-86116000D01*
X124612635Y-85889308D01*
X124553739Y-85669504D01*
X124457568Y-85463266D01*
X124327047Y-85276861D01*
X124327045Y-85276858D01*
X124166141Y-85115954D01*
X123979734Y-84985432D01*
X123979732Y-84985431D01*
X123773497Y-84889261D01*
X123773488Y-84889258D01*
X123553697Y-84830366D01*
X123553693Y-84830365D01*
X123553692Y-84830365D01*
X123553691Y-84830364D01*
X123553686Y-84830364D01*
X123327002Y-84810532D01*
X123326998Y-84810532D01*
X123100313Y-84830364D01*
X123100302Y-84830366D01*
X122880511Y-84889258D01*
X122880502Y-84889261D01*
X122674267Y-84985431D01*
X122674265Y-84985432D01*
X122487858Y-85115954D01*
X122326954Y-85276858D01*
X122196432Y-85463265D01*
X122196431Y-85463267D01*
X122100261Y-85669502D01*
X122100258Y-85669511D01*
X122041366Y-85889302D01*
X122041364Y-85889313D01*
X122021532Y-86115998D01*
X117007499Y-86115998D01*
X117007499Y-85268128D01*
X117001091Y-85208517D01*
X117000946Y-85208129D01*
X116950797Y-85073671D01*
X116950793Y-85073664D01*
X116864547Y-84958455D01*
X116864544Y-84958452D01*
X116749335Y-84872206D01*
X116749328Y-84872202D01*
X116614482Y-84821908D01*
X116614483Y-84821908D01*
X116554883Y-84815501D01*
X116554881Y-84815500D01*
X116554873Y-84815500D01*
X116554864Y-84815500D01*
X114859129Y-84815500D01*
X114859123Y-84815501D01*
X114799516Y-84821908D01*
X114664671Y-84872202D01*
X114664664Y-84872206D01*
X114549455Y-84958452D01*
X114549452Y-84958455D01*
X114463206Y-85073664D01*
X114463202Y-85073671D01*
X114412908Y-85208517D01*
X114406501Y-85268116D01*
X114406501Y-85268123D01*
X114406500Y-85268135D01*
X114406500Y-86963870D01*
X114406501Y-86963876D01*
X114412908Y-87023483D01*
X114463202Y-87158328D01*
X114463206Y-87158335D01*
X114549452Y-87273544D01*
X114549455Y-87273547D01*
X114664664Y-87359793D01*
X114664671Y-87359797D01*
X114709618Y-87376561D01*
X114799517Y-87410091D01*
X114834596Y-87413862D01*
X114899144Y-87440599D01*
X114938993Y-87497991D01*
X114941488Y-87567816D01*
X114905836Y-87627905D01*
X114892464Y-87638725D01*
X114867858Y-87655954D01*
X114706954Y-87816858D01*
X114576432Y-88003265D01*
X114576431Y-88003267D01*
X114480261Y-88209502D01*
X114480258Y-88209511D01*
X114421366Y-88429302D01*
X114421364Y-88429313D01*
X114401532Y-88655998D01*
X99906784Y-88655998D01*
X99907659Y-88646000D01*
X99887063Y-88410592D01*
X99828584Y-88192344D01*
X99825905Y-88182344D01*
X99825904Y-88182343D01*
X99825903Y-88182337D01*
X99726035Y-87968171D01*
X99590495Y-87774599D01*
X99468567Y-87652671D01*
X99435084Y-87591351D01*
X99440068Y-87521659D01*
X99481939Y-87465725D01*
X99512915Y-87448810D01*
X99644331Y-87399796D01*
X99759546Y-87313546D01*
X99845796Y-87198331D01*
X99896091Y-87063483D01*
X99902500Y-87003873D01*
X99902499Y-85208128D01*
X99896091Y-85148517D01*
X99883945Y-85115953D01*
X99845797Y-85013671D01*
X99845793Y-85013664D01*
X99759547Y-84898455D01*
X99759544Y-84898452D01*
X99644335Y-84812206D01*
X99644328Y-84812202D01*
X99509482Y-84761908D01*
X99509483Y-84761908D01*
X99449883Y-84755501D01*
X99449881Y-84755500D01*
X99449873Y-84755500D01*
X99449864Y-84755500D01*
X97654129Y-84755500D01*
X97654123Y-84755501D01*
X97594516Y-84761908D01*
X97459671Y-84812202D01*
X97459664Y-84812206D01*
X97344455Y-84898452D01*
X97344452Y-84898455D01*
X97258206Y-85013664D01*
X97258202Y-85013671D01*
X97207908Y-85148517D01*
X97201501Y-85208116D01*
X97201501Y-85208123D01*
X97201500Y-85208135D01*
X97201500Y-87003870D01*
X97201501Y-87003876D01*
X97207908Y-87063483D01*
X97258202Y-87198328D01*
X97258206Y-87198335D01*
X97344452Y-87313544D01*
X97344455Y-87313547D01*
X97459664Y-87399793D01*
X97459671Y-87399797D01*
X97591081Y-87448810D01*
X97647015Y-87490681D01*
X97671432Y-87556145D01*
X97656580Y-87624418D01*
X97635430Y-87652673D01*
X97513503Y-87774600D01*
X97377965Y-87968169D01*
X97377964Y-87968171D01*
X97278098Y-88182335D01*
X97278094Y-88182344D01*
X97216938Y-88410586D01*
X97216936Y-88410596D01*
X97196341Y-88645999D01*
X95496500Y-88645999D01*
X95496500Y-71373998D01*
X96611532Y-71373998D01*
X96611532Y-71374001D01*
X96631364Y-71600686D01*
X96631366Y-71600697D01*
X96690258Y-71820488D01*
X96690261Y-71820497D01*
X96786431Y-72026732D01*
X96786432Y-72026734D01*
X96916954Y-72213141D01*
X97077858Y-72374045D01*
X97077861Y-72374047D01*
X97264266Y-72504568D01*
X97470504Y-72600739D01*
X97690308Y-72659635D01*
X97852230Y-72673801D01*
X97916998Y-72679468D01*
X97917000Y-72679468D01*
X97917002Y-72679468D01*
X97948421Y-72676719D01*
X98143692Y-72659635D01*
X98209815Y-72641917D01*
X98279665Y-72643578D01*
X98329591Y-72674010D01*
X101306181Y-75650600D01*
X101339666Y-75711923D01*
X101342500Y-75738281D01*
X101342500Y-77401870D01*
X101342501Y-77401876D01*
X101348908Y-77461483D01*
X101399202Y-77596328D01*
X101399206Y-77596335D01*
X101485452Y-77711544D01*
X101485455Y-77711547D01*
X101600664Y-77797793D01*
X101600671Y-77797797D01*
X101606543Y-77799987D01*
X101735517Y-77848091D01*
X101795127Y-77854500D01*
X101991500Y-77854499D01*
X102058539Y-77874183D01*
X102104294Y-77926987D01*
X102115500Y-77978499D01*
X102115500Y-79968307D01*
X102139612Y-80089529D01*
X102139615Y-80089538D01*
X102151400Y-80117986D01*
X102151401Y-80117993D01*
X102151402Y-80117993D01*
X102186914Y-80203728D01*
X102186915Y-80203730D01*
X102186916Y-80203732D01*
X102186917Y-80203733D01*
X102205353Y-80231324D01*
X102218601Y-80251152D01*
X102239480Y-80317827D01*
X102239500Y-80320042D01*
X102239500Y-80677669D01*
X102239501Y-80677687D01*
X102249825Y-80778752D01*
X102286109Y-80888249D01*
X102304092Y-80942516D01*
X102394660Y-81089350D01*
X102516650Y-81211340D01*
X102663484Y-81301908D01*
X102827247Y-81356174D01*
X102928323Y-81366500D01*
X103526676Y-81366499D01*
X103526684Y-81366498D01*
X103526687Y-81366498D01*
X103582030Y-81360844D01*
X103627753Y-81356174D01*
X103791516Y-81301908D01*
X103938350Y-81211340D01*
X104052675Y-81097014D01*
X104113994Y-81063532D01*
X104183686Y-81068516D01*
X104228034Y-81097017D01*
X104341961Y-81210944D01*
X104341965Y-81210947D01*
X104488688Y-81301448D01*
X104488699Y-81301453D01*
X104652347Y-81355680D01*
X104753351Y-81365999D01*
X105302500Y-81365999D01*
X105351640Y-81365999D01*
X105351654Y-81365998D01*
X105452652Y-81355680D01*
X105616300Y-81301453D01*
X105616311Y-81301448D01*
X105763034Y-81210947D01*
X105763038Y-81210944D01*
X105884944Y-81089038D01*
X105884947Y-81089034D01*
X105975448Y-80942311D01*
X105975453Y-80942300D01*
X106021064Y-80804654D01*
X129926001Y-80804654D01*
X129936319Y-80905652D01*
X129990546Y-81069300D01*
X129990551Y-81069311D01*
X130081052Y-81216034D01*
X130081055Y-81216038D01*
X130202961Y-81337944D01*
X130202965Y-81337947D01*
X130349688Y-81428448D01*
X130349699Y-81428453D01*
X130513347Y-81482680D01*
X130614351Y-81492999D01*
X130663499Y-81492998D01*
X130663500Y-81492998D01*
X130663500Y-80768000D01*
X129926001Y-80768000D01*
X129926001Y-80804654D01*
X106021064Y-80804654D01*
X106029680Y-80778652D01*
X106039999Y-80677654D01*
X106040000Y-80677641D01*
X106040000Y-80641000D01*
X105302500Y-80641000D01*
X105302500Y-81365999D01*
X104753351Y-81365999D01*
X104802499Y-81365998D01*
X104802500Y-81365998D01*
X104802500Y-80231345D01*
X129926000Y-80231345D01*
X129926000Y-80268000D01*
X130663500Y-80268000D01*
X130663500Y-79543000D01*
X131163500Y-79543000D01*
X131163500Y-81492999D01*
X131212640Y-81492999D01*
X131212654Y-81492998D01*
X131313652Y-81482680D01*
X131477300Y-81428453D01*
X131477311Y-81428448D01*
X131624033Y-81337948D01*
X131737964Y-81224017D01*
X131799287Y-81190532D01*
X131868979Y-81195516D01*
X131913327Y-81224017D01*
X132027650Y-81338340D01*
X132174484Y-81428908D01*
X132338247Y-81483174D01*
X132439323Y-81493500D01*
X133037676Y-81493499D01*
X133037684Y-81493498D01*
X133037687Y-81493498D01*
X133093030Y-81487844D01*
X133138753Y-81483174D01*
X133302516Y-81428908D01*
X133449350Y-81338340D01*
X133571340Y-81216350D01*
X133661908Y-81069516D01*
X133716174Y-80905753D01*
X133726500Y-80804677D01*
X133726499Y-80231324D01*
X133724141Y-80208249D01*
X133723500Y-80195648D01*
X133723500Y-77851499D01*
X133743185Y-77784460D01*
X133795989Y-77738705D01*
X133847500Y-77727499D01*
X134043871Y-77727499D01*
X134043872Y-77727499D01*
X134103483Y-77721091D01*
X134238331Y-77670796D01*
X134353546Y-77584546D01*
X134439796Y-77469331D01*
X134464957Y-77401872D01*
X134468455Y-77392493D01*
X134510326Y-77336559D01*
X134575790Y-77312141D01*
X134644063Y-77326992D01*
X134675866Y-77351843D01*
X134683302Y-77359920D01*
X134684215Y-77360912D01*
X134684222Y-77360918D01*
X134867365Y-77503464D01*
X134867371Y-77503468D01*
X134867374Y-77503470D01*
X135071497Y-77613936D01*
X135185487Y-77653068D01*
X135291015Y-77689297D01*
X135291017Y-77689297D01*
X135291019Y-77689298D01*
X135519951Y-77727500D01*
X135519952Y-77727500D01*
X135752048Y-77727500D01*
X135752049Y-77727500D01*
X135980981Y-77689298D01*
X136200503Y-77613936D01*
X136404626Y-77503470D01*
X136587784Y-77360913D01*
X136744979Y-77190153D01*
X136871924Y-76995849D01*
X136965157Y-76783300D01*
X137022134Y-76558305D01*
X137022135Y-76558297D01*
X137041300Y-76327006D01*
X137041300Y-76326993D01*
X137022135Y-76095702D01*
X137022133Y-76095691D01*
X136965157Y-75870699D01*
X136871924Y-75658151D01*
X136744983Y-75463852D01*
X136744980Y-75463849D01*
X136744979Y-75463847D01*
X136587784Y-75293087D01*
X136587779Y-75293083D01*
X136587777Y-75293081D01*
X136404634Y-75150535D01*
X136404628Y-75150531D01*
X136200504Y-75040064D01*
X136200495Y-75040061D01*
X135980984Y-74964702D01*
X135790450Y-74932908D01*
X135752049Y-74926500D01*
X135683280Y-74926500D01*
X135616241Y-74906815D01*
X135570486Y-74854011D01*
X135560542Y-74784853D01*
X135589567Y-74721297D01*
X135595599Y-74714819D01*
X138272600Y-72037819D01*
X138333923Y-72004334D01*
X138360281Y-72001500D01*
X138995213Y-72001500D01*
X139062252Y-72021185D01*
X139096788Y-72054377D01*
X139207954Y-72213141D01*
X139368858Y-72374045D01*
X139368861Y-72374047D01*
X139555266Y-72504568D01*
X139761504Y-72600739D01*
X139981308Y-72659635D01*
X140143230Y-72673801D01*
X140207998Y-72679468D01*
X140208000Y-72679468D01*
X140208002Y-72679468D01*
X140270385Y-72674010D01*
X140434692Y-72659635D01*
X140654496Y-72600739D01*
X140860734Y-72504568D01*
X141047139Y-72374047D01*
X141208047Y-72213139D01*
X141338568Y-72026734D01*
X141434739Y-71820496D01*
X141493635Y-71600692D01*
X141513468Y-71374000D01*
X141493635Y-71147308D01*
X141434739Y-70927504D01*
X141338568Y-70721266D01*
X141208047Y-70534861D01*
X141208045Y-70534858D01*
X141047141Y-70373954D01*
X140860734Y-70243432D01*
X140860732Y-70243431D01*
X140654497Y-70147261D01*
X140654488Y-70147258D01*
X140434697Y-70088366D01*
X140434693Y-70088365D01*
X140434692Y-70088365D01*
X140434691Y-70088364D01*
X140434686Y-70088364D01*
X140208002Y-70068532D01*
X140207998Y-70068532D01*
X139981313Y-70088364D01*
X139981302Y-70088366D01*
X139761511Y-70147258D01*
X139761502Y-70147261D01*
X139555267Y-70243431D01*
X139555265Y-70243432D01*
X139368858Y-70373954D01*
X139207954Y-70534858D01*
X139096788Y-70693623D01*
X139042212Y-70737248D01*
X138995213Y-70746500D01*
X137987192Y-70746500D01*
X137865973Y-70770611D01*
X137865973Y-70770612D01*
X137865970Y-70770613D01*
X137865966Y-70770614D01*
X137799070Y-70798323D01*
X137799068Y-70798323D01*
X137751770Y-70817915D01*
X137648989Y-70886590D01*
X133645398Y-74890181D01*
X133584075Y-74923666D01*
X133557717Y-74926500D01*
X132148129Y-74926500D01*
X132148123Y-74926501D01*
X132088516Y-74932908D01*
X131953671Y-74983202D01*
X131953664Y-74983206D01*
X131838455Y-75069452D01*
X131838452Y-75069455D01*
X131752206Y-75184664D01*
X131752202Y-75184671D01*
X131701908Y-75319517D01*
X131695501Y-75379116D01*
X131695500Y-75379135D01*
X131695500Y-77274870D01*
X131695501Y-77274876D01*
X131701908Y-77334483D01*
X131752202Y-77469328D01*
X131752206Y-77469335D01*
X131838452Y-77584544D01*
X131838455Y-77584547D01*
X131953664Y-77670793D01*
X131953671Y-77670797D01*
X131998618Y-77687561D01*
X132088517Y-77721091D01*
X132148127Y-77727500D01*
X132344500Y-77727499D01*
X132411539Y-77747183D01*
X132457294Y-77799987D01*
X132468500Y-77851499D01*
X132468500Y-79427542D01*
X132448815Y-79494581D01*
X132396011Y-79540336D01*
X132357101Y-79550900D01*
X132338247Y-79552825D01*
X132174484Y-79607092D01*
X132174481Y-79607093D01*
X132027651Y-79697659D01*
X131913327Y-79811983D01*
X131852004Y-79845467D01*
X131782312Y-79840483D01*
X131737965Y-79811982D01*
X131624038Y-79698055D01*
X131624034Y-79698052D01*
X131477311Y-79607551D01*
X131477300Y-79607546D01*
X131313652Y-79553319D01*
X131212654Y-79543000D01*
X131163500Y-79543000D01*
X130663500Y-79543000D01*
X130663499Y-79542999D01*
X130614361Y-79543000D01*
X130614343Y-79543001D01*
X130513347Y-79553319D01*
X130349699Y-79607546D01*
X130349688Y-79607551D01*
X130202965Y-79698052D01*
X130202961Y-79698055D01*
X130081055Y-79819961D01*
X130081052Y-79819965D01*
X129990551Y-79966688D01*
X129990546Y-79966699D01*
X129936319Y-80130347D01*
X129926000Y-80231345D01*
X104802500Y-80231345D01*
X104802500Y-80141000D01*
X105302500Y-80141000D01*
X106039999Y-80141000D01*
X106039999Y-80104360D01*
X106039998Y-80104345D01*
X106029680Y-80003347D01*
X105975453Y-79839699D01*
X105975448Y-79839688D01*
X105884947Y-79692965D01*
X105884944Y-79692961D01*
X105763038Y-79571055D01*
X105763034Y-79571052D01*
X105616311Y-79480551D01*
X105616300Y-79480546D01*
X105452652Y-79426319D01*
X105351654Y-79416000D01*
X105302500Y-79416000D01*
X105302500Y-80141000D01*
X104802500Y-80141000D01*
X104802500Y-79416000D01*
X104802499Y-79415999D01*
X104753361Y-79416000D01*
X104753343Y-79416001D01*
X104652347Y-79426319D01*
X104488699Y-79480546D01*
X104488688Y-79480551D01*
X104341965Y-79571052D01*
X104228034Y-79684983D01*
X104166711Y-79718467D01*
X104097019Y-79713483D01*
X104052672Y-79684982D01*
X103938351Y-79570661D01*
X103938350Y-79570660D01*
X103847129Y-79514395D01*
X103791518Y-79480093D01*
X103791513Y-79480091D01*
X103790069Y-79479612D01*
X103627753Y-79425826D01*
X103627751Y-79425825D01*
X103526684Y-79415500D01*
X103526677Y-79415500D01*
X103494500Y-79415500D01*
X103427461Y-79395815D01*
X103381706Y-79343011D01*
X103370500Y-79291500D01*
X103370500Y-77978499D01*
X103390185Y-77911460D01*
X103442989Y-77865705D01*
X103494500Y-77854499D01*
X103690871Y-77854499D01*
X103690872Y-77854499D01*
X103750483Y-77848091D01*
X103885331Y-77797796D01*
X104000546Y-77711546D01*
X104086796Y-77596331D01*
X104115455Y-77519493D01*
X104157326Y-77463559D01*
X104222790Y-77439141D01*
X104291063Y-77453992D01*
X104322866Y-77478843D01*
X104330302Y-77486920D01*
X104331215Y-77487912D01*
X104331222Y-77487918D01*
X104514365Y-77630464D01*
X104514371Y-77630468D01*
X104514374Y-77630470D01*
X104718497Y-77740936D01*
X104832487Y-77780068D01*
X104938015Y-77816297D01*
X104938017Y-77816297D01*
X104938019Y-77816298D01*
X105166951Y-77854500D01*
X105166952Y-77854500D01*
X105399048Y-77854500D01*
X105399049Y-77854500D01*
X105627981Y-77816298D01*
X105847503Y-77740936D01*
X106051626Y-77630470D01*
X106072867Y-77613938D01*
X106113129Y-77582600D01*
X106234784Y-77487913D01*
X106391979Y-77317153D01*
X106395254Y-77312141D01*
X106419602Y-77274873D01*
X106518924Y-77122849D01*
X106612157Y-76910300D01*
X106669134Y-76685305D01*
X106679657Y-76558308D01*
X106688300Y-76454006D01*
X106688300Y-76453993D01*
X106669135Y-76222702D01*
X106669133Y-76222691D01*
X106612157Y-75997699D01*
X106518924Y-75785151D01*
X106391983Y-75590852D01*
X106391980Y-75590849D01*
X106391979Y-75590847D01*
X106234784Y-75420087D01*
X106234779Y-75420083D01*
X106234777Y-75420081D01*
X106051634Y-75277535D01*
X106051628Y-75277531D01*
X105847504Y-75167064D01*
X105847495Y-75167061D01*
X105627984Y-75091702D01*
X105437450Y-75059908D01*
X105399049Y-75053500D01*
X105166951Y-75053500D01*
X105128550Y-75059908D01*
X104938015Y-75091702D01*
X104718504Y-75167061D01*
X104718495Y-75167064D01*
X104514371Y-75277531D01*
X104514365Y-75277535D01*
X104331222Y-75420081D01*
X104331218Y-75420085D01*
X104322866Y-75429158D01*
X104262979Y-75465148D01*
X104193141Y-75463047D01*
X104135525Y-75423522D01*
X104115455Y-75388507D01*
X104086797Y-75311671D01*
X104086793Y-75311664D01*
X104000547Y-75196455D01*
X104000544Y-75196452D01*
X103885335Y-75110206D01*
X103885328Y-75110202D01*
X103750482Y-75059908D01*
X103750483Y-75059908D01*
X103690883Y-75053501D01*
X103690881Y-75053500D01*
X103690873Y-75053500D01*
X103690865Y-75053500D01*
X102535281Y-75053500D01*
X102468242Y-75033815D01*
X102447600Y-75017181D01*
X99217010Y-71786591D01*
X99183525Y-71725268D01*
X99184917Y-71666815D01*
X99202633Y-71600699D01*
X99202632Y-71600699D01*
X99202635Y-71600692D01*
X99222468Y-71374000D01*
X99202635Y-71147308D01*
X99196389Y-71123999D01*
X109338127Y-71123999D01*
X109338128Y-71124000D01*
X110301314Y-71124000D01*
X110296920Y-71128394D01*
X110244259Y-71219606D01*
X110217000Y-71321339D01*
X110217000Y-71426661D01*
X110244259Y-71528394D01*
X110296920Y-71619606D01*
X110301314Y-71624000D01*
X109338128Y-71624000D01*
X109390730Y-71820317D01*
X109390734Y-71820326D01*
X109486865Y-72026482D01*
X109617342Y-72212820D01*
X109778179Y-72373657D01*
X109964517Y-72504134D01*
X110170673Y-72600265D01*
X110170682Y-72600269D01*
X110366999Y-72652872D01*
X110367000Y-72652871D01*
X110367000Y-71689686D01*
X110371394Y-71694080D01*
X110462606Y-71746741D01*
X110564339Y-71774000D01*
X110669661Y-71774000D01*
X110771394Y-71746741D01*
X110862606Y-71694080D01*
X110867000Y-71689686D01*
X110867000Y-72652872D01*
X111063317Y-72600269D01*
X111063326Y-72600265D01*
X111269482Y-72504134D01*
X111455820Y-72373657D01*
X111616657Y-72212820D01*
X111747134Y-72026482D01*
X111843265Y-71820326D01*
X111843269Y-71820317D01*
X111895872Y-71624000D01*
X110932686Y-71624000D01*
X110937080Y-71619606D01*
X110989741Y-71528394D01*
X111017000Y-71426661D01*
X111017000Y-71321339D01*
X110989741Y-71219606D01*
X110937080Y-71128394D01*
X110932686Y-71124000D01*
X111895872Y-71124000D01*
X111895872Y-71123999D01*
X126229127Y-71123999D01*
X126229128Y-71124000D01*
X127192314Y-71124000D01*
X127187920Y-71128394D01*
X127135259Y-71219606D01*
X127108000Y-71321339D01*
X127108000Y-71426661D01*
X127135259Y-71528394D01*
X127187920Y-71619606D01*
X127192314Y-71624000D01*
X126229128Y-71624000D01*
X126281730Y-71820317D01*
X126281734Y-71820326D01*
X126377865Y-72026482D01*
X126508342Y-72212820D01*
X126669179Y-72373657D01*
X126855517Y-72504134D01*
X127061673Y-72600265D01*
X127061682Y-72600269D01*
X127257999Y-72652872D01*
X127258000Y-72652871D01*
X127258000Y-71689686D01*
X127262394Y-71694080D01*
X127353606Y-71746741D01*
X127455339Y-71774000D01*
X127560661Y-71774000D01*
X127662394Y-71746741D01*
X127753606Y-71694080D01*
X127758000Y-71689686D01*
X127758000Y-72652872D01*
X127954317Y-72600269D01*
X127954326Y-72600265D01*
X128160482Y-72504134D01*
X128346820Y-72373657D01*
X128507657Y-72212820D01*
X128638134Y-72026482D01*
X128734265Y-71820326D01*
X128734269Y-71820317D01*
X128786872Y-71624000D01*
X127823686Y-71624000D01*
X127828080Y-71619606D01*
X127880741Y-71528394D01*
X127908000Y-71426661D01*
X127908000Y-71321339D01*
X127880741Y-71219606D01*
X127828080Y-71128394D01*
X127823686Y-71124000D01*
X128786872Y-71124000D01*
X128786872Y-71123999D01*
X128734269Y-70927682D01*
X128734265Y-70927673D01*
X128638134Y-70721517D01*
X128507657Y-70535179D01*
X128346820Y-70374342D01*
X128160482Y-70243865D01*
X127954328Y-70147734D01*
X127758000Y-70095127D01*
X127758000Y-71058314D01*
X127753606Y-71053920D01*
X127662394Y-71001259D01*
X127560661Y-70974000D01*
X127455339Y-70974000D01*
X127353606Y-71001259D01*
X127262394Y-71053920D01*
X127258000Y-71058314D01*
X127258000Y-70095127D01*
X127061671Y-70147734D01*
X126855517Y-70243865D01*
X126669179Y-70374342D01*
X126508342Y-70535179D01*
X126377865Y-70721517D01*
X126281734Y-70927673D01*
X126281730Y-70927682D01*
X126229127Y-71123999D01*
X111895872Y-71123999D01*
X111843269Y-70927682D01*
X111843265Y-70927673D01*
X111747134Y-70721517D01*
X111616657Y-70535179D01*
X111455820Y-70374342D01*
X111269482Y-70243865D01*
X111063328Y-70147734D01*
X110867000Y-70095127D01*
X110867000Y-71058314D01*
X110862606Y-71053920D01*
X110771394Y-71001259D01*
X110669661Y-70974000D01*
X110564339Y-70974000D01*
X110462606Y-71001259D01*
X110371394Y-71053920D01*
X110367000Y-71058314D01*
X110367000Y-70095127D01*
X110170671Y-70147734D01*
X109964517Y-70243865D01*
X109778179Y-70374342D01*
X109617342Y-70535179D01*
X109486865Y-70721517D01*
X109390734Y-70927673D01*
X109390730Y-70927682D01*
X109338127Y-71123999D01*
X99196389Y-71123999D01*
X99143739Y-70927504D01*
X99047568Y-70721266D01*
X98917047Y-70534861D01*
X98917045Y-70534858D01*
X98756141Y-70373954D01*
X98569734Y-70243432D01*
X98569732Y-70243431D01*
X98363497Y-70147261D01*
X98363488Y-70147258D01*
X98143697Y-70088366D01*
X98143693Y-70088365D01*
X98143692Y-70088365D01*
X98143691Y-70088364D01*
X98143686Y-70088364D01*
X97917002Y-70068532D01*
X97916998Y-70068532D01*
X97690313Y-70088364D01*
X97690302Y-70088366D01*
X97470511Y-70147258D01*
X97470502Y-70147261D01*
X97264267Y-70243431D01*
X97264265Y-70243432D01*
X97077858Y-70373954D01*
X96916954Y-70534858D01*
X96786432Y-70721265D01*
X96786431Y-70721267D01*
X96690261Y-70927502D01*
X96690258Y-70927511D01*
X96631366Y-71147302D01*
X96631364Y-71147313D01*
X96611532Y-71373998D01*
X95496500Y-71373998D01*
X95496500Y-67934500D01*
X95516185Y-67867461D01*
X95568989Y-67821706D01*
X95620500Y-67810500D01*
X144409500Y-67810500D01*
X144476539Y-67830185D01*
G37*
%TD.AperFunction*%
%TD*%
M02*
