M48
; DRILL file {KiCad 8.0.8} date 2025-02-18T10:54:21-0600
; FORMAT={-:-/ absolute / inch / decimal}
; #@! TF.CreationDate,2025-02-18T10:54:21-06:00
; #@! TF.GenerationSoftware,Kicad,Pcbnew,8.0.8
; #@! TF.FileFunction,Plated,1,2,PTH
FMAT,2
INCH
; #@! TA.AperFunction,Plated,PTH,ViaDrill
T1C0.0118
; #@! TA.AperFunction,Plated,PTH,ComponentDrill
T2C0.0315
; #@! TA.AperFunction,Plated,PTH,ComponentDrill
T3C0.0354
; #@! TA.AperFunction,Plated,PTH,ComponentDrill
T4C0.0394
%
G90
G05
T1
X3.84Y-3.02
X3.84Y-4.02
X3.84Y-4.32
X3.84Y-4.52
X3.94Y-2.72
X3.94Y-3.12
X3.94Y-4.22
X3.94Y-4.42
X3.94Y-4.62
X4.04Y-3.72
X4.04Y-4.52
X4.14Y-2.82
X4.14Y-3.82
X4.14Y-4.42
X4.14Y-4.62
X4.24Y-2.72
X4.24Y-2.92
X4.24Y-3.12
X4.24Y-3.22
X4.24Y-3.72
X4.24Y-3.92
X4.34Y-3.22
X4.34Y-3.32
X4.34Y-3.82
X4.44Y-2.72
X4.44Y-2.92
X4.44Y-3.72
X4.54Y-2.72
X4.54Y-2.82
X4.54Y-3.02
X4.64Y-2.72
X4.64Y-2.92
X4.64Y-3.12
X4.74Y-2.72
X4.74Y-2.82
X4.74Y-3.02
X4.74Y-3.22
X4.94Y-3.82
X5.04Y-3.02
X5.04Y-3.22
X5.04Y-3.42
X5.14Y-3.32
X5.14Y-3.82
X5.24Y-2.82
X5.24Y-3.92
X5.24Y-4.42
X5.24Y-4.62
X5.34Y-4.32
X5.34Y-4.52
X5.44Y-3.22
X5.44Y-4.42
X5.44Y-4.62
X5.54Y-3.02
X5.54Y-4.52
X5.64Y-4.62
T2
X3.855Y-2.81
X4.355Y-2.81
X4.5554Y-3.3904
X4.5554Y-3.4904
X4.5554Y-3.5904
X4.5554Y-3.6904
X4.8554Y-3.3904
X4.8554Y-3.4904
X4.8554Y-3.5904
X4.8554Y-3.6904
X5.02Y-2.81
X5.52Y-2.81
T3
X4.045Y-3.01
X4.145Y-3.01
X5.24Y-3.005
X5.34Y-3.005
T4
X3.88Y-3.39
X3.88Y-3.49
X3.88Y-3.59
X3.88Y-3.69
X5.5Y-3.3904
X5.5Y-3.4904
X5.5Y-3.5904
X5.5Y-3.6904
X5.56Y-4.1106
X5.56Y-4.2106
X5.56Y-4.3106
M30
